<?xml version="1.0" standalone="no"?>
<!DOCTYPE svg PUBLIC "-//W3C//DTD SVG 20010904//EN"
 "http://www.w3.org/TR/2001/REC-SVG-20010904/DTD/svg10.dtd">
<svg version="1.0" xmlns="http://www.w3.org/2000/svg"
 width="400.000000pt" height="400.000000pt" viewBox="0 0 400.000000 400.000000"
 preserveAspectRatio="xMidYMid meet">
<metadata>
Created by potrace 1.14, written by Peter Selinger 2001-2017
</metadata>
<g transform="translate(0.000000,400.000000) scale(0.100000,-0.100000)"
fill="#000000" stroke="none">
<path d="M1310 3880 c0 -27 4 -50 8 -50 5 0 7 14 4 30 -5 38 5 39 19 3 10 -27
11 -27 25 -9 8 11 14 25 14 30 0 6 -4 4 -10 -4 -10 -16 -12 -15 -28 23 -18 42
-32 32 -32 -23z"/>
<path d="M1386 3922 c-7 -12 6 -92 15 -92 5 0 9 23 9 50 0 45 -10 64 -24 42z"/>
<path d="M1845 3920 c3 -5 8 -10 11 -10 2 0 4 5 4 10 0 6 -5 10 -11 10 -5 0
-7 -4 -4 -10z"/>
<path d="M2207 3923 c-10 -9 -9 -93 1 -93 4 0 6 20 5 45 -1 26 2 43 8 40 5 -4
9 -1 9 4 0 12 -13 14 -23 4z"/>
<path d="M2413 3880 c0 -30 2 -43 4 -27 2 15 2 39 0 55 -2 15 -4 2 -4 -28z"/>
<path d="M1880 3877 c0 -20 4 -38 8 -41 10 -6 8 61 -2 71 -3 3 -6 -10 -6 -30z"/>
<path d="M2689 3905 c-7 -7 2 -75 10 -75 4 0 5 18 3 40 -4 41 -5 44 -13 35z"/>
<path d="M1570 3891 c-12 -4 -14 -14 -9 -36 l7 -30 1 28 c1 34 21 36 21 2 0
-14 5 -25 10 -25 14 0 12 46 -2 58 -7 5 -20 7 -28 3z"/>
<path d="M1670 3893 c-11 -3 -16 -15 -15 -43 0 -22 3 -40 8 -40 4 0 7 6 8 13
1 6 2 21 2 32 2 26 22 30 21 5 0 -15 2 -17 13 -9 9 8 13 8 13 0 0 -6 4 -11 9
-11 5 0 8 11 7 24 -1 18 -4 22 -13 14 -9 -7 -13 -7 -13 0 0 12 -20 20 -40 15z"/>
<path d="M1758 3885 c7 -15 7 -26 -1 -40 -9 -18 -9 -19 6 -6 22 17 22 35 0 52
-15 13 -15 12 -5 -6z"/>
<path d="M2029 3896 c-5 -6 -2 -66 4 -66 4 0 7 11 7 25 0 14 5 25 10 25 6 0
10 -11 10 -25 0 -14 5 -25 10 -25 12 0 13 40 2 56 -5 8 -37 16 -43 10z"/>
<path d="M2376 3875 c9 -38 12 -42 20 -21 4 11 0 24 -10 34 -16 16 -17 15 -10
-13z"/>
<path d="M2449 3898 c-7 -15 -6 -59 2 -63 5 -4 9 2 9 11 0 16 1 16 15 -2 14
-18 14 -18 15 8 0 15 -4 30 -10 33 -5 3 -10 1 -10 -4 0 -6 -4 -11 -10 -11 -5
0 -7 7 -4 15 5 12 -2 23 -7 13z"/>
<path d="M2511 3861 c1 -28 3 -30 6 -11 3 14 9 30 14 36 5 7 3 11 -6 11 -11 0
-15 -11 -14 -36z"/>
<path d="M2592 3863 c-1 -23 -8 -44 -14 -46 -10 -4 -10 -6 0 -6 17 -1 24 20
19 61 -3 30 -4 30 -5 -9z"/>
<path d="M1425 3877 c-11 -25 19 -57 37 -39 9 9 8 12 -4 12 -9 0 -18 10 -21
23 -3 20 -4 20 -12 4z"/>
<path d="M1494 3878 c3 -10 1 -20 -5 -23 -11 -7 -3 -25 11 -25 5 0 7 7 4 15
-4 8 -1 15 5 15 6 0 11 -7 11 -15 0 -8 4 -15 8 -15 5 0 6 14 4 31 -3 22 -7 27
-13 18 -7 -12 -11 -11 -20 1 -9 13 -10 12 -5 -2z"/>
<path d="M1790 3883 c0 -5 9 -18 20 -28 11 -10 20 -14 20 -8 0 5 -9 18 -20 28
-11 10 -20 14 -20 8z"/>
<path d="M1840 3860 c0 -16 5 -30 10 -30 6 0 10 14 10 30 0 17 -4 30 -10 30
-5 0 -10 -13 -10 -30z"/>
<path d="M1920 3859 c0 -18 3 -29 7 -25 11 11 13 45 3 51 -6 4 -10 -7 -10 -26z"/>
<path d="M1957 3883 c-13 -12 -7 -41 8 -47 13 -4 14 -2 5 14 -6 11 -8 25 -5
30 7 11 2 13 -8 3z"/>
<path d="M1994 3866 c0 -13 4 -22 9 -19 10 6 9 43 -2 43 -5 0 -8 -11 -7 -24z"/>
<path d="M2126 3877 c-11 -23 14 -50 37 -41 18 7 24 54 7 54 -5 0 -9 -10 -7
-21 3 -33 -21 -35 -25 -2 -4 24 -5 25 -12 10z"/>
<path d="M2270 3850 c0 -22 5 -40 11 -40 5 0 7 5 4 10 -3 6 1 10 10 10 8 0 18
7 22 15 5 14 8 14 26 -2 20 -17 20 -17 14 0 -4 10 -7 26 -7 35 0 13 -2 14 -9
3 -6 -9 -11 -10 -15 -2 -13 20 -23 11 -18 -15 4 -20 1 -25 -9 -22 -8 3 -14 15
-13 27 0 11 -3 21 -8 21 -4 0 -8 -18 -8 -40z"/>
<path d="M2618 3878 c-4 -9 0 -24 7 -35 11 -14 16 -16 26 -5 11 10 10 12 -3
12 -10 0 -18 10 -20 23 -3 18 -4 19 -10 5z"/>
<path d="M2650 3880 c0 -5 5 -10 11 -10 5 0 7 5 4 10 -3 6 -8 10 -11 10 -2 0
-4 -4 -4 -10z"/>
<path d="M1790 3840 c0 -5 5 -10 11 -10 5 0 7 5 4 10 -3 6 -8 10 -11 10 -2 0
-4 -4 -4 -10z"/>
<path d="M1547 3756 c-31 -38 -45 -46 -94 -56 -534 -111 -1052 -448 -1317
-858 -57 -87 -136 -239 -136 -260 0 -9 20 27 46 78 210 433 615 770 1147 956
94 32 297 87 303 81 2 -1 -12 -22 -29 -45 -29 -38 -36 -42 -68 -40 -26 2 -35
0 -32 -9 3 -8 -4 -13 -18 -14 -13 0 -33 -4 -44 -8 -13 -5 1 -7 38 -6 31 2 57
1 57 -2 0 -2 -39 -52 -86 -109 -48 -58 -85 -107 -82 -109 2 -2 48 52 102 120
80 101 105 125 135 134 25 7 27 9 9 7 -16 -2 -28 0 -28 3 0 15 80 91 96 91 11
1 57 7 104 15 72 12 76 14 25 10 -33 -2 -80 -8 -105 -11 l-45 -7 33 37 c29 33
37 46 29 46 -1 0 -19 -20 -40 -44z"/>
<path d="M2449 3784 c5 -11 17 -26 25 -34 28 -23 18 -33 -26 -26 -224 33 -505
44 -653 27 -33 -4 19 -5 115 -3 178 5 376 -8 524 -34 43 -7 80 -15 81 -16 0
-2 16 -23 35 -47 33 -43 34 -44 10 -38 -14 3 -51 11 -83 17 -33 7 -55 16 -51
21 4 7 -7 8 -28 4 -42 -7 -181 10 -186 24 -2 7 -12 7 -28 0 -14 -5 -35 -9 -47
-9 -39 0 -95 -20 -101 -36 -3 -8 1 -29 9 -45 9 -16 13 -33 11 -38 -3 -5 2 -11
12 -14 9 -2 26 -8 36 -13 19 -7 19 -7 1 24 -10 17 -22 29 -26 26 -5 -2 -16 7
-25 21 -13 20 -14 28 -4 40 16 20 89 29 124 15 19 -7 31 -7 35 -1 8 13 145 -6
182 -25 17 -9 29 -10 31 -3 2 6 33 3 88 -8 l84 -18 97 -125 97 -125 -33 -3
c-19 -2 -47 4 -64 12 -16 9 -36 13 -44 10 -8 -3 -18 0 -22 6 -4 6 -15 8 -26 5
-26 -8 -208 49 -242 76 -15 11 -27 15 -27 9 0 -8 -6 -7 -22 1 -12 7 -38 13
-58 14 l-35 2 28 -12 c15 -6 24 -14 21 -18 -4 -4 7 -7 24 -7 18 0 32 -4 32
-10 0 -5 12 -10 28 -10 37 -1 254 -65 245 -73 -3 -4 6 -7 20 -7 15 0 27 -3 27
-7 0 -5 36 -7 79 -5 l79 3 41 -51 c31 -39 39 -58 35 -75 -3 -13 -1 -33 6 -44
8 -16 -5 -11 -57 23 -230 148 -467 222 -743 233 -250 9 -446 -24 -658 -113
-96 -40 -231 -115 -274 -151 -9 -8 -23 -16 -32 -17 -8 -1 -71 -58 -139 -127
-215 -217 -334 -431 -393 -709 -25 -118 -25 -391 -1 -507 59 -272 190 -517
375 -697 28 -28 50 -54 49 -60 -1 -6 3 -10 10 -11 6 0 42 -23 80 -51 111 -83
153 -109 263 -162 135 -64 226 -92 430 -132 144 -28 180 -31 279 -27 74 3 116
9 121 17 4 7 16 9 27 6 10 -3 68 8 127 24 258 73 433 157 591 285 l60 49 -29
-40 c-16 -21 -45 -58 -64 -82 -26 -32 -33 -50 -29 -70 4 -20 -5 -39 -36 -80
l-42 -54 -77 4 c-47 3 -75 1 -71 -5 3 -5 -7 -6 -27 -2 -23 5 -30 4 -26 -4 4
-6 6 -11 4 -11 -2 0 -55 -15 -118 -34 -63 -18 -139 -37 -168 -41 -29 -4 -49
-11 -46 -17 3 -5 -5 -12 -17 -15 -23 -6 -23 -7 6 -14 22 -6 34 -4 49 9 14 13
20 14 23 4 3 -9 13 -5 33 11 23 20 92 46 223 83 9 3 17 0 17 -6 0 -8 6 -8 21
0 11 7 23 9 26 6 3 -3 19 2 35 10 16 8 45 14 65 12 l35 -3 -100 -126 -100
-126 -75 -13 c-41 -7 -80 -9 -86 -6 -6 4 -23 0 -39 -8 -34 -18 -172 -33 -172
-19 0 7 -14 7 -39 0 -22 -6 -38 -14 -36 -18 8 -11 68 -20 75 -10 3 6 48 13
100 16 52 4 104 10 115 15 27 11 136 33 140 28 2 -2 -13 -23 -33 -46 -36 -41
-40 -42 -133 -57 -237 -37 -516 -38 -764 -4 -82 12 -106 25 -145 79 l-18 26
59 -10 c32 -5 59 -15 59 -20 0 -7 40 -12 107 -13 58 -1 109 -6 112 -12 6 -8
81 1 141 17 30 9 37 42 16 75 -9 13 -14 26 -11 29 3 2 -11 12 -30 21 -19 9
-35 14 -35 11 0 -9 41 -59 48 -59 34 -1 43 -49 13 -65 -25 -13 -92 -13 -126 0
-19 7 -24 7 -19 -1 9 -16 -131 -2 -168 15 -14 8 -38 11 -52 9 -28 -6 -124 14
-143 30 -7 5 -13 7 -13 3 0 -4 -13 0 -29 9 -20 10 -31 11 -33 4 -3 -8 -15 -8
-41 -1 -20 6 -35 7 -32 2 3 -4 21 -11 40 -14 20 -4 33 -11 30 -17 -4 -5 14 -9
42 -10 43 -1 51 -5 82 -40 19 -22 32 -41 30 -44 -3 -2 -24 1 -48 6 -24 5 -49
8 -55 6 -6 -2 19 -9 57 -17 59 -11 72 -17 102 -53 19 -22 35 -37 35 -32 0 5
-12 22 -27 37 -30 32 -27 33 62 18 238 -38 581 -31 819 17 l30 5 -33 -43 -33
-44 39 43 c36 39 47 44 138 66 615 149 1125 527 1369 1013 44 89 29 78 -19
-13 -96 -184 -232 -357 -391 -499 -250 -222 -616 -410 -954 -489 -93 -22 -96
-21 -60 24 26 33 38 40 66 40 20 0 33 4 30 9 -3 5 10 12 29 15 19 4 37 11 40
16 3 5 -9 5 -27 -1 -43 -12 -45 -12 -52 7 -4 10 22 51 76 117 45 56 82 103 83
105 5 7 37 -13 46 -29 13 -25 1 -89 -17 -89 -10 0 -14 -12 -14 -37 l0 -38 24
30 c14 17 21 31 16 33 -5 2 -4 17 1 35 13 47 12 55 -16 83 -27 27 -27 29 19
87 22 27 36 37 50 33 53 -14 81 60 31 86 l-24 13 48 65 c27 36 63 80 80 99
285 302 413 606 413 976 0 345 -112 633 -350 902 -73 82 -79 93 -61 98 11 4
18 9 16 12 -3 2 -15 -1 -27 -7 -19 -10 -27 -6 -73 41 -51 52 -52 53 -27 59 50
12 33 97 -18 87 -19 -4 -31 5 -62 44 l-39 49 25 25 c26 26 29 43 15 92 -5 18
-6 33 -1 35 5 2 -2 16 -16 31 l-24 28 0 -40 c0 -29 4 -41 14 -41 23 0 30 -57
11 -86 -9 -14 -22 -24 -30 -22 -19 4 -176 209 -168 220 3 6 24 8 47 5 l41 -5
-37 11 c-21 6 -38 16 -38 22 0 8 -10 10 -26 7 -20 -4 -32 3 -54 29 -16 19 -29
38 -30 42 0 5 19 6 43 3 38 -5 37 -4 -13 10 -38 11 -63 25 -80 47 -50 62 -52
64 -41 41z m-534 -395 c-27 -5 -63 -13 -80 -19 -30 -10 -30 -10 5 -4 80 12
135 15 123 7 -8 -6 17 -9 65 -10 54 -1 71 2 57 8 -21 10 10 7 90 -7 22 -4 35
-3 35 4 0 6 -30 13 -67 17 -104 10 -108 15 -9 9 291 -15 651 -165 823 -340 29
-30 53 -52 53 -48 0 23 157 -158 213 -247 124 -194 191 -399 212 -646 l7 -83
-220 1 -219 0 -7 52 c-11 92 -8 117 12 117 24 0 47 -27 56 -65 8 -31 62 -95
80 -95 6 1 0 10 -14 21 -33 28 -60 69 -60 94 0 21 -29 46 -64 55 -16 5 -24 27
-42 114 -13 60 -32 136 -44 170 -11 33 -20 65 -20 71 0 7 24 19 53 28 48 15
40 15 -34 0 -26 -5 -31 -2 -44 31 -9 20 -31 68 -50 108 -19 39 -34 72 -33 73
2 1 19 13 38 27 19 14 40 24 46 21 6 -2 19 6 29 17 32 35 -6 24 -66 -19 l-55
-39 -28 49 c-15 27 -24 49 -19 49 4 0 -3 9 -17 20 -14 10 -22 21 -19 24 3 3
54 -8 112 -24 119 -33 201 -38 235 -14 36 25 25 35 -14 12 -43 -25 -86 -22
-218 16 -48 14 -98 26 -110 26 -14 1 -36 20 -64 57 l-42 57 69 38 c38 21 75
46 82 55 12 14 12 16 -1 8 -8 -4 -26 -16 -40 -25 -45 -31 -100 -60 -115 -60
-19 0 -19 16 0 24 20 7 19 32 -3 48 -21 15 -82 110 -82 126 0 7 -4 12 -10 12
-20 0 47 -118 85 -150 8 -7 12 -16 9 -21 -12 -19 -33 -7 -49 29 -28 59 -65
101 -112 128 -53 32 -147 68 -138 54 3 -5 12 -10 18 -10 34 0 137 -61 175
-105 59 -68 53 -86 -10 -32 -67 56 -179 129 -187 121 -3 -4 0 -9 7 -11 28 -10
158 -103 195 -138 62 -61 40 -67 -38 -11 -51 37 -114 66 -140 64 -25 -2 -32
-12 -16 -22 5 -4 11 0 13 6 3 7 5 -1 5 -19 0 -28 -2 -31 -20 -22 -10 6 -29 8
-41 5 -15 -4 -28 2 -46 22 -14 15 -22 23 -17 18 12 -17 8 -26 -14 -26 -12 0
-23 8 -26 18 -4 17 -43 29 -43 13 0 -10 -60 -2 -89 12 -19 10 -25 9 -29 -2 -4
-11 -6 -11 -13 0 -4 7 -12 10 -16 5 -4 -4 0 -13 10 -21 23 -17 12 -48 -14 -40
-11 4 -19 2 -19 -4 0 -6 -10 -19 -22 -31 -26 -24 -94 -27 -124 -6 -18 14 -18
15 8 25 35 13 110 63 104 68 -3 3 -20 -6 -38 -20 -18 -13 -41 -27 -52 -31 -18
-6 -18 -5 -1 20 9 14 15 28 12 30 -3 3 -15 -11 -27 -30 -15 -26 -29 -36 -48
-37 -39 -3 -54 -5 -82 -14 l-25 -9 30 -8 c18 -4 31 -4 33 2 4 10 52 14 52 5 0
-14 -61 -125 -69 -125 -18 0 -146 42 -155 51 -6 6 -6 13 2 21 7 7 12 22 12 35
0 18 -5 23 -27 23 -20 0 -24 3 -16 11 6 6 55 12 116 13 58 0 103 5 100 10 -3
5 -48 6 -99 3 -52 -4 -94 -3 -94 1 0 4 20 22 44 40 31 23 54 32 82 32 21 0 46
4 53 9 10 6 0 8 -30 5 l-44 -5 43 27 c24 14 40 29 38 32 -3 3 -29 -9 -57 -26
-42 -27 -57 -31 -92 -26 -40 5 -41 4 -22 -11 11 -8 26 -13 35 -10 18 7 11 0
-49 -49 -36 -30 -46 -34 -58 -24 -13 10 -19 7 -35 -15 -26 -36 -47 -34 -103 9
-26 19 -49 34 -51 31 -2 -2 17 -18 42 -36 25 -18 43 -35 41 -37 -2 -3 -23 0
-47 5 -37 8 -44 7 -63 -12 -17 -17 -33 -21 -77 -20 -44 1 -49 -1 -25 -7 51
-13 74 -11 95 10 17 17 30 20 83 16 103 -8 103 -9 46 -82 -31 -39 -58 -64 -70
-64 -11 0 -70 -14 -131 -31 -121 -33 -175 -34 -209 -3 -10 9 -19 12 -19 6 0
-6 10 -18 22 -26 33 -23 121 -20 208 8 41 12 90 26 109 29 l33 7 -17 -26 c-41
-64 -90 -152 -131 -239 -24 -52 -48 -95 -53 -95 -4 0 -30 7 -56 15 -27 8 -51
12 -53 10 -3 -2 22 -12 55 -22 l60 -17 -28 -86 c-37 -116 -68 -269 -76 -379
l-6 -91 -218 0 -219 0 0 53 c0 145 53 363 126 516 70 149 146 254 272 379 172
170 341 275 557 348 116 39 292 73 375 72 l55 0 -50 -9z m1015 -166 c0 -10
-32 -43 -42 -43 -4 0 -8 7 -8 16 0 10 6 14 14 11 10 -4 13 -1 9 9 -3 8 1 14
11 14 9 0 16 -3 16 -7z m-808 -10 c12 20 38 -58 38 -117 0 -30 -4 -56 -10 -58
-5 -1 -7 -14 -3 -27 6 -23 6 -23 17 -3 7 13 9 48 5 94 -3 40 -5 74 -3 76 1 2
14 0 28 -4 17 -4 36 -22 52 -50 28 -48 26 -74 -6 -74 -30 0 -64 -38 -50 -55 9
-11 4 -15 -32 -18 -39 -4 -39 -4 7 -3 37 1 54 -3 65 -17 9 -11 33 -20 60 -23
51 -5 52 -5 73 -61 16 -41 16 -43 -1 -43 -9 0 -82 23 -162 51 -91 32 -162 50
-190 50 -25 0 -85 -13 -134 -30 -50 -17 -93 -31 -98 -31 -4 0 -8 10 -8 23 0
31 -27 67 -51 67 -11 0 -19 7 -19 16 0 13 10 15 58 10 l57 -5 -50 10 c-27 6
-51 12 -53 14 -2 1 11 31 28 64 27 54 33 60 49 51 11 -5 40 -11 65 -12 39 -1
51 4 76 27 16 16 33 26 36 22 13 -13 -20 -69 -57 -99 -45 -36 -60 -63 -26 -47
20 9 69 74 96 126 7 14 17 20 27 16 13 -5 14 0 9 29 l-7 35 53 -8 c39 -6 55
-5 61 4z m233 -3 c4 -6 23 -17 43 -26 20 -8 46 -23 57 -33 11 -10 41 -27 67
-37 27 -10 48 -22 48 -25 0 -8 -59 -32 -120 -50 l-45 -12 40 -9 c59 -12 149
-40 159 -49 4 -4 -2 -12 -14 -19 -12 -6 -39 -27 -60 -46 -43 -39 -128 -80
-139 -67 -4 4 -14 23 -21 41 -11 28 -10 35 4 51 20 22 20 30 0 53 -16 16 -15
18 7 27 23 9 23 10 2 10 -16 1 -20 6 -16 22 3 12 11 18 19 15 8 -3 21 -9 31
-13 10 -4 14 -3 10 5 -4 6 -21 13 -37 17 -26 6 -28 8 -15 21 19 19 20 64 1 64
-16 0 -31 17 -40 48 -7 22 7 31 19 12z m591 -27 c-10 -10 -19 5 -10 18 6 11 8
11 12 0 2 -7 1 -15 -2 -18z m-11 -13 c3 -5 -3 -10 -15 -10 -12 0 -18 5 -15 10
3 6 10 10 15 10 5 0 12 -4 15 -10z m-1477 -47 c-14 -15 -25 -20 -31 -14 -6 6
-4 16 7 26 9 9 16 21 16 27 0 6 6 5 15 -2 14 -12 13 -16 -7 -37z m851 30 c17
-10 31 -26 31 -35 0 -15 -3 -16 -26 -6 -20 9 -27 9 -34 -2 -6 -9 -12 -5 -24
18 -12 23 -13 32 -3 35 20 9 24 8 56 -10z m-769 -43 c0 -30 -23 -41 -59 -29
-35 12 -37 16 -16 39 20 22 75 15 75 -10z m830 -1 c0 -11 -4 -17 -10 -14 -5 3
-10 13 -10 21 0 8 5 14 10 14 6 0 10 -9 10 -21z m-40 -19 c14 -11 19 -20 13
-20 -9 0 -10 -7 -3 -24 7 -19 5 -26 -7 -30 -19 -8 -19 -8 -36 35 -14 32 -13
59 1 59 4 0 18 -9 32 -20z m-866 -12 c20 -8 23 -14 15 -24 -14 -18 -3 -34 24
-34 12 0 45 -14 72 -30 28 -16 60 -30 73 -30 27 0 27 -4 1 -74 -19 -49 -25
-56 -43 -50 -45 14 -87 38 -128 73 -51 45 -79 61 -107 61 -12 0 -21 3 -21 6 0
5 82 112 87 113 1 1 13 -4 27 -11z m1165 -50 c22 -29 38 -54 35 -57 -5 -5
-194 52 -194 59 0 5 95 46 112 49 4 0 25 -23 47 -51z m-334 3 l15 -30 -46 -7
c-55 -8 -81 8 -50 32 11 8 28 14 38 14 10 0 18 5 18 10 0 18 9 11 25 -19z
m-688 -8 c80 -26 100 -45 56 -51 -12 -2 -49 11 -82 27 -33 17 -67 31 -76 31
-8 0 -15 5 -15 10 0 16 28 12 117 -17z m757 -45 c9 -12 16 -26 16 -30 0 -10
-40 -10 -40 0 0 4 -3 17 -6 30 -8 29 10 29 30 0z m-44 3 c0 -5 2 -16 5 -23 4
-11 -3 -13 -32 -10 -21 2 -44 9 -52 16 -11 9 -9 12 10 17 36 10 69 10 69 0z
m-925 -31 c15 -6 50 -31 79 -56 28 -24 72 -52 99 -62 35 -12 46 -21 41 -32 -3
-8 -22 -71 -41 -140 -20 -69 -40 -129 -44 -133 -4 -5 -53 -1 -109 8 -56 8
-104 14 -107 12 -4 -5 15 -9 140 -28 63 -10 77 -15 73 -28 -2 -9 -7 -32 -10
-51 -4 -26 -4 -30 3 -15 5 11 10 30 10 42 1 12 8 29 17 37 8 9 11 16 5 16 -10
0 -4 26 50 203 l30 97 33 0 c18 0 49 7 69 15 39 16 47 11 67 -39 6 -16 13 -26
16 -23 3 3 -2 19 -10 36 -9 16 -16 34 -16 39 0 12 183 72 220 72 16 0 75 -16
132 -36 57 -20 118 -41 136 -47 35 -11 43 -27 15 -27 -10 0 -27 -13 -38 -28
-14 -20 -15 -24 -2 -14 9 8 20 11 25 8 6 -3 17 5 26 19 20 31 85 37 87 8 1
-17 2 -17 6 0 2 9 9 17 14 17 22 0 98 44 139 81 55 49 77 55 125 34 38 -15 38
-16 17 -31 -13 -9 -31 -12 -46 -8 -38 9 -50 -3 -31 -33 20 -30 13 -53 -15 -53
-23 0 -26 10 -7 29 10 11 7 12 -13 6 -14 -4 -29 -13 -35 -20 -5 -6 -34 -33
-63 -60 l-52 -48 -11 32 c-6 18 -13 30 -15 28 -2 -2 1 -18 7 -36 10 -28 9 -37
-8 -59 -33 -46 -36 -59 -6 -23 l30 33 23 -80 c12 -45 20 -88 17 -96 -3 -8 -1
-16 5 -18 10 -4 57 -210 58 -253 0 -18 -1 -18 -17 -2 -11 11 -17 31 -16 57 2
39 1 40 -31 40 -18 0 -52 9 -75 21 -24 11 -60 23 -80 25 -30 4 -26 1 19 -14
30 -10 69 -26 86 -35 17 -9 41 -13 52 -10 20 5 21 2 16 -23 -4 -23 1 -38 25
-68 48 -60 28 -55 -32 8 -29 31 -60 56 -70 56 -9 0 -42 12 -74 26 -32 14 -89
30 -127 35 -55 7 -76 15 -99 36 -27 26 -29 26 -17 5 15 -29 67 -52 118 -52 22
0 65 -11 96 -25 l56 -25 0 -46 c0 -41 -2 -45 -15 -34 -9 7 -14 19 -11 27 3 7
1 13 -5 13 -6 0 -9 -12 -7 -27 2 -22 9 -29 31 -31 26 -3 27 -2 27 43 0 46 1
47 28 41 15 -4 38 -19 51 -34 13 -15 35 -40 50 -57 14 -16 29 -41 32 -55 l7
-25 1 27 c1 22 5 26 22 23 30 -6 31 -8 14 -41 -8 -16 -15 -40 -16 -54 -1 -23
-2 -23 -9 5 -8 30 -8 30 -9 -7 l-1 -38 -187 -2 -188 -3 189 -2 189 -3 -6 -93
c-3 -50 -2 -72 2 -47 l6 45 21 -35 c12 -19 27 -51 33 -71 7 -21 33 -57 61 -83
28 -26 50 -52 50 -57 0 -7 -66 -145 -75 -157 -2 -2 -36 0 -77 4 l-74 6 22 117
c13 64 23 132 22 151 0 25 -2 28 -5 10 -2 -14 -13 -80 -25 -147 -22 -118 -23
-123 -48 -124 -23 -2 -23 -2 -2 -6 12 -2 22 -7 22 -10 0 -10 -43 -168 -48
-173 -2 -3 -17 11 -34 30 -32 38 -28 24 8 -25 21 -29 21 -31 5 -80 -14 -45
-19 -50 -49 -53 -26 -3 -38 2 -54 23 -11 14 -23 24 -25 21 -3 -3 -15 -1 -26 5
-19 11 -19 11 -1 -15 11 -14 27 -26 37 -26 9 0 17 -4 17 -9 0 -5 -8 -11 -17
-14 -10 -3 -71 -24 -136 -46 -65 -23 -131 -41 -148 -41 -17 0 -96 23 -177 50
-81 28 -161 50 -178 50 -30 0 -32 3 -53 73 -26 82 -61 208 -61 220 0 4 10 12
23 18 20 9 20 9 -5 4 -24 -5 -28 -2 -29 17 -2 23 -2 23 -6 1 -3 -14 -13 -23
-31 -26 -25 -4 -25 -4 4 -6 30 -1 32 -4 48 -70 9 -38 28 -104 41 -146 14 -43
24 -79 23 -80 -2 -1 -23 -11 -48 -23 -25 -11 -69 -40 -98 -65 -31 -27 -67 -49
-88 -53 -19 -3 -36 -5 -38 -3 -47 65 -200 358 -191 367 2 2 36 12 77 22 40 10
65 19 56 19 -9 1 -43 -6 -74 -14 -68 -18 -64 -21 -99 87 -34 107 -63 255 -71
366 l-7 92 217 0 216 0 2 -67 2 -68 3 68 4 67 182 2 182 3 -182 2 -183 3 0 48
c0 26 7 90 15 142 7 52 16 115 19 140 l6 45 -11 -40 c-14 -57 -39 -241 -39
-292 l0 -43 -216 0 -217 0 7 87 c8 92 20 170 37 243 21 87 61 210 70 215 4 3
35 -1 68 -10 32 -8 67 -15 77 -14 11 0 -18 9 -63 20 l-82 20 18 42 c70 162
167 327 192 327 10 0 30 -5 44 -10z m1290 0 c3 -6 -1 -7 -9 -4 -18 7 -21 14
-7 14 6 0 13 -4 16 -10z m-947 -9 c7 -4 17 -24 22 -44 l8 -37 -51 -15 c-67
-20 -81 -19 -73 3 31 82 42 102 61 102 11 0 26 -4 33 -9z m1014 -94 c23 -39
25 -47 12 -58 -25 -21 -99 -112 -87 -108 6 2 29 28 52 57 23 28 45 52 49 52 8
0 37 -58 81 -162 l20 -47 -52 -11 c-68 -14 -280 -50 -282 -47 -28 68 -31 114
-8 139 14 15 14 22 3 42 -11 21 -10 27 4 41 9 9 16 25 16 36 0 15 7 19 34 19
46 0 64 22 42 55 -22 33 -21 35 18 28 20 -3 36 -1 41 6 11 19 28 7 57 -42z
m-190 -39 c-7 -7 -12 -19 -12 -27 0 -8 -7 -23 -17 -33 -13 -14 -14 -23 -5 -42
9 -19 8 -27 -4 -36 -17 -15 -19 -79 -2 -115 16 -36 0 -45 -27 -13 -23 27 -55
117 -55 156 0 13 23 40 61 71 55 46 91 69 61 39z m340 -293 c10 -28 23 -76 30
-107 11 -55 11 -58 -16 -97 -18 -25 -38 -42 -57 -46 -32 -7 -84 1 -110 18 -14
9 -22 6 -38 -14 -18 -21 -20 -22 -21 -5 0 15 -5 17 -27 12 -16 -4 -35 -15 -43
-25 -9 -10 -30 -20 -48 -24 -27 -6 -32 -4 -32 13 0 10 -11 74 -25 141 -14 68
-23 125 -20 127 3 3 14 -3 25 -13 17 -16 20 -16 20 -2 0 17 4 18 150 42 52 9
111 20 130 25 54 13 63 8 82 -45z m62 -247 c6 -42 5 -48 -10 -48 -10 0 -28 10
-40 21 l-23 22 26 34 c14 19 29 30 33 26 4 -4 11 -29 14 -55z m-156 -14 l53
-7 -28 -29 c-36 -38 -106 -87 -130 -91 -10 -1 -27 -8 -38 -15 -19 -11 -18 -11
8 -12 15 0 27 4 27 9 0 5 10 11 23 15 13 3 55 32 94 65 60 50 73 57 83 46 7
-8 27 -20 46 -27 33 -12 34 -13 36 -73 0 -33 1 -69 2 -80 1 -19 -6 -20 -207
-23 l-207 -2 6 27 c3 16 13 41 20 57 20 42 17 54 -15 61 -47 10 -47 34 -1 41
22 4 40 12 40 19 0 7 13 18 29 23 26 9 30 8 41 -16 l11 -26 16 32 c11 22 19
29 27 23 6 -5 35 -13 64 -17z m-1784 -331 c8 -120 36 -261 75 -379 16 -49 28
-89 27 -89 -36 -9 -176 -58 -173 -61 2 -2 37 7 77 21 40 14 81 25 90 25 11 0
25 -22 43 -68 15 -37 56 -117 91 -177 35 -61 60 -111 57 -113 -4 -1 -47 10
-97 25 -98 30 -201 40 -232 24 -18 -9 -27 -4 -69 43 -26 29 -63 74 -81 99
l-33 46 71 32 c38 18 68 34 66 36 -2 2 -35 -10 -72 -27 -80 -36 -70 -43 -139
91 -79 153 -145 398 -145 538 l0 31 219 0 218 0 7 -97z m1960 25 c-7 -92 -24
-209 -33 -226 -5 -8 -20 5 -45 38 -68 90 -188 180 -239 180 -20 0 -20 0 -2
-14 11 -8 23 -12 28 -9 9 6 82 -37 117 -69 14 -13 49 -50 78 -84 38 -44 52
-68 51 -90 -1 -40 -52 -199 -64 -199 -6 0 -56 9 -113 19 -117 22 -114 18 -61
113 16 29 29 61 29 70 0 10 -25 42 -55 71 -30 30 -55 61 -55 70 0 10 -13 42
-30 72 -17 32 -29 71 -30 93 l0 37 215 0 215 0 -6 -72z m451 19 c-20 -172 -58
-347 -75 -347 -5 0 -11 13 -15 29 -3 16 -24 59 -46 95 -21 36 -39 67 -39 70 0
2 14 19 31 36 29 28 31 35 26 78 -5 44 -32 82 -59 82 -6 0 1 -9 15 -20 44 -35
44 -130 -1 -144 -10 -4 -36 -42 -60 -90 -53 -106 -74 -131 -127 -159 -36 -18
-95 -67 -187 -154 -15 -13 -18 -14 -19 -2 0 10 -2 10 -6 2 -2 -7 -11 -13 -19
-13 -8 0 -38 -25 -66 -55 -28 -30 -56 -55 -63 -55 -7 0 -20 10 -28 23 -9 12
-16 17 -16 10 -1 -6 3 -14 9 -18 5 -3 -11 -27 -35 -52 -25 -26 -45 -53 -45
-60 0 -15 -16 -17 -25 -3 -4 6 -10 8 -15 5 -4 -3 -13 2 -20 10 -10 12 -9 24 4
58 9 23 16 54 16 68 0 34 21 78 41 84 9 3 21 17 27 30 8 16 20 25 34 25 19 0
136 -24 207 -42 7 -1 15 4 16 12 2 8 15 51 29 95 29 89 61 259 71 377 l7 77
219 0 220 0 -6 -52z m-124 -262 c50 -101 49 -117 -11 -239 -29 -59 -56 -109
-60 -111 -4 -2 -51 14 -106 35 -54 22 -106 39 -114 39 -8 0 19 -13 60 -28 41
-16 92 -36 113 -45 l38 -17 -30 -42 c-46 -66 -140 -177 -151 -177 -5 0 -12 5
-15 10 -12 19 -115 10 -222 -20 -58 -17 -110 -30 -115 -30 -5 0 4 19 20 43 16
23 37 57 46 75 l17 33 32 -22 c18 -12 37 -27 42 -34 6 -6 23 -15 40 -19 29 -7
29 -7 11 13 -11 12 -27 21 -37 21 -10 0 -31 11 -47 25 l-31 26 38 79 c32 69
48 89 119 151 45 39 82 75 82 79 0 4 25 19 55 34 58 27 92 68 138 168 20 44
22 46 39 31 10 -9 32 -44 49 -78z m-717 -191 c25 -4 46 -11 46 -16 0 -5 -13
-21 -29 -36 -34 -33 -51 -63 -51 -94 0 -32 -30 -109 -52 -134 -10 -11 -18 -25
-18 -32 0 -7 -13 -6 -43 5 l-43 16 15 48 15 48 38 -35 c53 -48 61 -43 9 7 -26
26 -40 47 -37 56 4 8 9 27 12 41 3 15 13 51 21 80 16 58 19 59 117 46z m233
-171 c-49 -101 -46 -99 -71 -69 l-21 27 50 54 c28 30 55 54 62 54 7 1 -1 -26
-20 -66z m-87 -65 c16 -18 30 -37 30 -42 0 -5 -21 -42 -46 -83 -34 -55 -51
-73 -68 -73 -25 0 -116 54 -116 70 0 6 16 18 35 27 19 9 35 20 35 24 0 11 81
109 91 109 5 0 23 -15 39 -32z m-194 -63 c4 -8 13 -15 21 -15 11 0 7 -7 -11
-21 -21 -17 -29 -19 -41 -9 -18 15 -19 32 -3 48 16 16 27 15 34 -3z m-903 -75
c14 -36 28 -73 32 -82 6 -14 2 -18 -16 -18 -13 0 -31 -5 -39 -10 -19 -12 -4
-13 36 -1 30 9 31 8 63 -56 18 -36 29 -68 26 -71 -3 -3 -15 0 -28 7 -16 8 -30
9 -47 2 -15 -6 -19 -10 -10 -11 8 -1 32 -4 53 -6 21 -1 44 -8 51 -13 7 -6 15
-8 19 -5 3 3 16 1 29 -6 22 -11 22 -10 4 4 -11 9 -26 16 -33 16 -14 0 -88 138
-79 148 3 3 23 9 43 13 37 8 37 8 -10 6 l-49 -2 -29 74 c-17 40 -27 76 -24 79
8 8 75 -10 210 -58 66 -23 138 -42 161 -42 25 -1 100 19 193 51 84 29 161 51
171 49 16 -3 15 -9 -13 -81 l-31 -78 -50 5 -51 5 47 -11 c43 -9 47 -12 37 -30
-6 -11 -8 -23 -4 -26 3 -3 8 4 12 16 3 12 11 22 18 22 9 0 12 -18 10 -62 l-2
-63 13 43 c7 24 10 50 7 59 -5 13 0 14 28 8 47 -10 159 -56 159 -65 0 -21 -53
-80 -115 -127 -89 -68 -187 -119 -245 -127 l-45 -6 25 20 25 21 -41 -20 c-42
-21 -92 -25 -74 -7 21 21 9 28 -13 8 -30 -28 -60 -28 -81 1 l-17 22 11 -22 c9
-19 8 -23 -7 -23 -10 0 -31 9 -48 20 -39 26 -57 25 -25 -1 l25 -21 -70 6 c-51
4 -87 14 -133 38 -76 38 -88 52 -39 46 20 -2 33 0 31 4 -3 4 -27 8 -53 8 -46
0 -51 3 -135 82 -100 93 -101 87 16 124 32 10 56 20 53 22 -2 3 -41 -8 -86
-24 l-81 -28 -19 24 c-11 14 -29 37 -40 53 l-20 27 24 0 c13 0 38 10 54 23 17
12 52 38 78 57 37 28 104 62 112 56 1 0 12 -30 26 -66z m849 20 c9 -11 19 -20
23 -20 4 0 24 -14 45 -30 21 -17 52 -33 69 -36 17 -4 31 -9 31 -13 0 -3 -18
-29 -41 -56 -45 -55 -66 -77 -56 -59 7 13 -75 52 -165 78 -32 9 -58 20 -58 25
0 4 11 34 24 67 12 32 26 67 29 77 6 16 9 16 44 2 21 -8 45 -24 55 -35z
m-1311 -60 c57 -16 114 -30 126 -30 20 0 103 -86 103 -107 0 -5 -15 -17 -32
-26 -18 -9 -49 -26 -70 -38 l-36 -22 -87 57 c-84 57 -205 160 -205 176 0 5 8
11 18 13 41 11 86 5 183 -23z m1843 17 c17 -13 13 -19 -55 -77 -76 -65 -229
-170 -248 -170 -6 0 -37 17 -69 37 -31 21 -58 38 -60 39 -2 1 18 29 45 63 35
44 55 61 73 61 14 0 70 14 125 30 111 32 162 37 189 17z m-1449 -307 c21 -16
24 -21 9 -16 -12 4 -28 0 -40 -10 -18 -14 -16 -15 23 -10 36 5 52 1 98 -25 30
-17 55 -32 55 -34 0 -5 -125 27 -195 50 -69 24 -133 51 -204 89 l-33 18 22 15
c13 9 44 26 69 39 l46 22 60 -57 c33 -32 74 -68 90 -81z m1088 82 c20 -14 37
-28 37 -32 0 -14 -202 -97 -253 -105 -12 -2 -40 -10 -62 -18 -89 -32 -102 -29
-40 8 51 31 97 66 177 133 33 28 8 -25 -36 -75 -25 -29 -32 -41 -17 -31 27 19
54 56 78 108 32 68 30 68 116 12z m265 -13 c-2 -6 -8 -10 -13 -10 -5 0 -11 4
-13 10 -2 6 4 11 13 11 9 0 15 -5 13 -11z m-24 -18 c3 -5 -1 -14 -9 -21 -13
-10 -15 -9 -15 9 0 21 14 28 24 12z m46 -13 c0 -16 -3 -19 -11 -11 -6 6 -8 16
-5 22 11 17 16 13 16 -11z m-20 -16 c0 -13 -12 -22 -22 -16 -10 6 -1 24 13 24
5 0 9 -4 9 -8z m-967 -169 c-7 -2 -19 -2 -25 0 -7 3 -2 5 12 5 14 0 19 -2 13
-5z"/>
<path d="M2233 3363 c9 -2 23 -2 30 0 6 3 -1 5 -18 5 -16 0 -22 -2 -12 -5z"/>
<path d="M1750 3296 l0 -45 68 1 68 0 -4 29 c-3 20 -10 29 -23 29 -11 0 -19
-4 -19 -10 0 -5 7 -7 15 -4 10 4 15 0 15 -15 0 -12 -5 -21 -11 -21 -5 0 -7 5
-3 12 5 8 2 9 -12 3 -10 -4 -32 -10 -48 -13 -21 -3 -27 -1 -24 9 3 8 13 13 22
13 9 -1 16 2 16 7 0 5 -9 9 -20 9 -12 0 -20 7 -20 16 0 12 7 15 25 12 14 -3
25 -1 25 3 0 5 -16 9 -35 9 -35 0 -35 0 -35 -44z"/>
<path d="M2105 3295 c0 -25 3 -45 8 -45 4 0 7 20 7 45 0 25 -3 45 -8 45 -4 0
-7 -20 -7 -45z"/>
<path d="M1957 3323 c-13 -12 -8 -73 6 -73 8 0 12 13 11 36 -2 38 -7 48 -17
37z"/>
<path d="M1909 3308 c-1 -2 -3 -15 -5 -30 -2 -22 1 -28 17 -28 24 0 25 18 2
37 -17 14 -17 14 0 9 9 -3 17 -1 17 4 0 9 -28 15 -31 8z"/>
<path d="M1997 3304 c-4 -4 -7 -18 -7 -31 0 -18 5 -23 25 -23 14 0 25 4 25 10
0 5 -6 7 -14 4 -8 -3 -17 -1 -21 5 -3 7 3 11 15 11 13 0 20 5 18 13 -5 14 -31
21 -41 11z"/>
<path d="M2055 3280 c0 -16 3 -30 8 -30 4 0 7 8 7 18 0 10 5 23 12 30 9 9 8
12 -7 12 -15 0 -20 -7 -20 -30z"/>
<path d="M2140 3280 c0 -16 5 -30 10 -30 6 0 10 14 10 30 0 17 -4 30 -10 30
-5 0 -10 -13 -10 -30z"/>
<path d="M2174 3296 c-10 -25 3 -46 28 -45 23 0 23 0 -2 11 l-25 11 23 5 c13
2 21 9 19 15 -6 19 -36 20 -43 3z"/>
<path d="M2239 3308 c-7 -16 -5 -58 2 -58 6 0 7 5 4 10 -3 6 -1 10 4 10 6 0
11 -5 11 -11 0 -5 5 -7 11 -4 7 5 4 14 -8 28 -10 11 -12 17 -5 13 6 -4 12 -2
12 3 0 9 -28 16 -31 9z"/>
<path d="M1122 2808 c-74 -77 -112 -122 -112 -133 0 -4 12 8 27 27 47 58 127
138 139 138 6 0 19 9 29 20 15 17 16 20 3 20 -9 0 -47 -33 -86 -72z"/>
<path d="M807 2710 c46 -27 175 -81 186 -77 6 2 -12 11 -39 21 -27 11 -75 32
-106 47 -66 33 -88 38 -41 9z"/>
<path d="M3195 2689 c-22 -10 -60 -28 -85 -39 -25 -11 -34 -17 -20 -14 31 8
142 55 155 66 16 14 -7 8 -50 -13z"/>
<path d="M3020 2620 c-18 -12 -2 -12 25 0 13 6 15 9 5 9 -8 0 -22 -4 -30 -9z"/>
<path d="M3332 2387 c-36 -100 -135 -217 -176 -209 -7 1 -21 -7 -32 -19 -19
-22 -19 -22 6 -14 44 13 110 65 145 113 33 46 93 178 84 187 -3 2 -15 -24 -27
-58z"/>
<path d="M980 2374 c-30 -31 -73 -68 -95 -83 -47 -32 -129 -66 -143 -57 -5 3
-22 2 -38 -3 l-29 -7 33 -12 c18 -6 30 -7 27 -2 -4 6 1 10 9 10 62 0 222 104
275 179 12 17 21 31 19 31 -2 0 -28 -25 -58 -56z"/>
<path d="M1838 2973 c12 -2 32 -2 45 0 12 2 2 4 -23 4 -25 0 -35 -2 -22 -4z"/>
<path d="M1919 2967 c9 -9 170 -11 178 -3 3 2 -38 6 -91 8 -52 2 -91 -1 -87
-5z"/>
<path d="M1932 2813 c-12 -2 -20 -8 -17 -13 3 -5 -4 -11 -15 -15 -11 -3 -20
-11 -20 -18 0 -8 3 -8 12 1 7 7 19 12 28 12 9 0 25 9 35 20 10 11 14 19 9 19
-5 -1 -19 -4 -32 -6z"/>
<path d="M1500 2802 c0 -5 -21 -23 -46 -41 -43 -32 -134 -136 -134 -155 0 -5
13 9 28 30 40 55 142 146 157 140 7 -2 21 4 31 15 16 18 16 19 -9 19 -15 0
-27 -4 -27 -8z"/>
<path d="M1735 2733 c4 -10 12 -30 17 -45 11 -30 28 -38 28 -13 0 22 15 18 26
-6 8 -18 12 -15 26 30 9 28 12 51 7 51 -5 0 -9 -9 -9 -19 0 -30 -19 -35 -26
-6 -9 34 -33 33 -26 -1 3 -19 1 -25 -7 -20 -6 4 -11 16 -11 27 0 11 -7 19 -16
19 -11 0 -14 -5 -9 -17z"/>
<path d="M2119 2748 c-5 -20 -2 -98 4 -98 4 0 7 23 7 50 0 28 -2 50 -5 50 -3
0 -5 -1 -6 -2z"/>
<path d="M2150 2740 c0 -5 5 -10 10 -10 6 0 10 5 10 10 0 6 -4 10 -10 10 -5 0
-10 -4 -10 -10z"/>
<path d="M1968 2724 c-12 -11 -10 -62 3 -69 14 -10 15 -5 9 38 -3 22 -8 35
-12 31z"/>
<path d="M1848 2698 c-10 -25 15 -53 38 -43 18 8 18 9 -3 12 -13 3 -23 13 -25
26 -3 18 -4 19 -10 5z"/>
<path d="M1880 2700 c0 -5 5 -10 11 -10 5 0 7 5 4 10 -3 6 -8 10 -11 10 -2 0
-4 -4 -4 -10z"/>
<path d="M1910 2699 c0 -6 8 -18 18 -26 16 -14 16 -14 0 -9 -10 3 -18 1 -18
-4 0 -13 27 -13 35 1 4 6 -2 19 -14 30 -12 11 -21 15 -21 8z"/>
<path d="M2004 2695 c-13 -32 24 -63 41 -35 3 6 -4 10 -16 10 -16 0 -20 5 -16
20 6 23 -1 27 -9 5z"/>
<path d="M2030 2700 c0 -5 5 -10 10 -10 6 0 10 5 10 10 0 6 -4 10 -10 10 -5 0
-10 -4 -10 -10z"/>
<path d="M2065 2680 c0 -16 5 -30 12 -30 6 0 9 9 6 21 -4 12 0 25 8 30 11 7 9
9 -6 9 -16 0 -20 -7 -20 -30z"/>
<path d="M2150 2680 c0 -16 5 -30 10 -30 6 0 10 14 10 30 0 17 -4 30 -10 30
-5 0 -10 -13 -10 -30z"/>
<path d="M2187 2703 c-23 -23 7 -64 34 -47 9 5 5 10 -10 16 -15 5 -21 14 -17
23 6 16 3 19 -7 8z"/>
<path d="M2215 2700 c3 -5 8 -10 11 -10 2 0 4 5 4 10 0 6 -5 10 -11 10 -5 0
-7 -4 -4 -10z"/>
<path d="M2240 2703 c0 -3 8 -15 18 -26 16 -19 16 -20 0 -14 -10 4 -18 2 -18
-3 0 -6 9 -10 20 -10 23 0 27 25 6 46 -16 15 -26 18 -26 7z"/>
<path d="M1880 2610 c0 -16 4 -30 8 -30 5 0 7 14 4 30 -2 17 -6 30 -8 30 -2 0
-4 -13 -4 -30z"/>
<path d="M1736 2614 c-5 -14 -4 -15 9 -4 17 14 19 20 6 20 -5 0 -12 -7 -15
-16z"/>
<path d="M2097 2623 c-4 -3 -7 -11 -7 -17 0 -6 5 -5 12 2 6 6 9 14 7 17 -3 3
-9 2 -12 -2z"/>
<path d="M1618 2500 c2 -27 8 -50 13 -50 6 0 9 8 7 17 -2 10 4 19 15 21 12 2
17 -3 17 -17 0 -44 18 -19 22 29 2 41 0 50 -13 50 -12 0 -15 -7 -11 -25 3 -21
0 -25 -18 -25 -19 0 -21 4 -16 25 4 17 2 25 -6 25 -9 0 -12 -14 -10 -50z"/>
<path d="M1983 2500 c0 -30 2 -43 4 -27 2 15 2 39 0 55 -2 15 -4 2 -4 -28z"/>
<path d="M2300 2536 c0 -7 -9 -16 -20 -19 -13 -3 -20 -14 -20 -30 0 -31 13
-41 40 -32 16 5 20 15 20 51 0 24 -4 44 -10 44 -5 0 -10 -6 -10 -14z m0 -46
c0 -11 -7 -20 -15 -20 -15 0 -21 21 -8 33 12 13 23 7 23 -13z"/>
<path d="M2074 2517 c-8 -21 -1 -60 11 -64 6 -2 10 13 9 32 -1 40 -11 56 -20
32z"/>
<path d="M2157 2523 c-11 -10 -8 -61 3 -68 6 -4 10 10 10 34 0 42 -2 46 -13
34z"/>
<path d="M1723 2513 c-19 -7 -16 -50 3 -57 20 -8 44 11 44 34 0 14 -23 34 -33
29 -1 0 -8 -3 -14 -6z m31 -20 c9 -22 -12 -43 -23 -24 -10 15 -4 41 9 41 4 0
11 -8 14 -17z"/>
<path d="M1789 2516 c-5 -6 -2 -66 4 -66 4 0 7 11 7 25 0 14 5 25 10 25 6 0
10 4 10 8 0 7 -26 13 -31 8z"/>
<path d="M1835 2509 c-4 -5 0 -18 9 -28 9 -10 14 -21 11 -24 -3 -4 0 -3 6 2 7
6 18 5 30 -2 14 -9 21 -9 31 1 9 9 7 12 -11 12 -16 0 -21 4 -18 14 8 21 -4 28
-18 10 -10 -14 -12 -14 -24 0 -12 14 -11 16 4 10 13 -5 16 -4 11 4 -9 15 -23
15 -31 1z"/>
<path d="M1910 2506 c0 -9 5 -16 10 -16 6 0 10 4 10 9 0 6 -4 13 -10 16 -5 3
-10 -1 -10 -9z"/>
<path d="M2019 2518 c-7 -15 -6 -59 2 -63 5 -3 6 1 3 9 -8 21 6 20 22 -1 13
-17 13 -17 14 0 0 23 -18 57 -30 57 -6 0 -11 -1 -11 -2z m21 -18 c0 -5 -5 -10
-11 -10 -5 0 -7 5 -4 10 3 6 8 10 11 10 2 0 4 -4 4 -10z"/>
<path d="M2117 2513 c-2 -5 0 -21 4 -38 7 -29 7 -29 8 8 1 35 -3 46 -12 30z"/>
<path d="M2192 2488 c2 -26 8 -33 26 -34 28 -2 30 3 21 41 l-7 30 -1 -27 c-1
-35 -21 -37 -21 -3 0 14 -5 25 -11 25 -6 0 -9 -14 -7 -32z"/>
<path d="M2356 2506 c3 -9 11 -16 16 -16 13 0 5 23 -10 28 -7 2 -10 -2 -6 -12z"/>
<path d="M2395 2509 c-4 -5 1 -20 12 -31 18 -21 18 -21 -2 -14 -16 6 -18 5 -7
-5 9 -10 15 -10 24 -1 9 9 7 17 -8 33 -17 21 -18 22 -1 16 11 -4 16 -3 12 3
-8 13 -22 13 -30 -1z"/>
<path d="M2330 2486 c0 -29 11 -39 36 -29 15 6 15 7 -5 15 -12 4 -20 12 -16
17 3 5 1 12 -5 16 -6 4 -10 -4 -10 -19z"/>
<path d="M1441 2346 c-50 -81 -194 -178 -258 -175 -16 1 -39 -3 -52 -8 l-25
-10 29 -7 c19 -5 31 -3 33 3 2 6 12 11 22 11 30 0 111 39 161 77 48 36 126
129 116 139 -2 3 -14 -11 -26 -30z"/>
<path d="M1595 2250 c0 -27 3 -50 8 -50 4 0 7 15 7 33 l1 32 24 -27 c13 -16
26 -28 29 -28 2 0 6 20 8 45 2 29 -1 45 -8 45 -7 0 -9 -10 -6 -25 2 -14 1 -25
-3 -25 -4 0 -16 11 -27 25 -11 14 -22 25 -26 25 -4 0 -7 -22 -7 -50z"/>
<path d="M1693 2250 c0 -50 0 -50 33 -50 18 0 36 4 39 10 4 6 -6 7 -25 4 -23
-5 -30 -3 -30 10 0 11 9 16 26 16 14 0 23 4 20 9 -3 5 -15 7 -26 4 -16 -4 -20
0 -20 17 0 18 4 21 25 18 14 -3 25 -1 25 3 0 5 -15 9 -34 9 l-33 0 0 -50z"/>
<path d="M2000 2260 c0 -29 -4 -40 -12 -37 -7 2 -12 12 -11 22 1 11 -2 14 -9
7 -18 -18 -4 -47 25 -50 26 -3 27 -1 27 42 0 25 -4 48 -10 51 -6 4 -10 -10
-10 -35z"/>
<path d="M1818 2274 c-12 -11 -10 -62 3 -69 14 -10 15 -5 9 38 -3 22 -8 35
-12 31z"/>
<path d="M1859 2266 c-6 -8 -4 -66 2 -66 5 0 9 11 9 25 0 14 5 25 10 25 6 0
10 4 10 8 0 7 -27 13 -31 8z"/>
<path d="M2128 2264 c-8 -8 12 -54 24 -54 11 0 10 11 -5 38 -7 12 -16 20 -19
16z"/>
<path d="M2160 2258 c0 -22 10 -48 19 -48 4 0 13 11 19 25 7 15 8 25 2 25 -6
0 -10 -5 -10 -12 0 -6 -7 -3 -15 8 -12 16 -14 17 -15 2z"/>
<path d="M2220 2237 c0 -20 4 -37 9 -37 4 0 7 14 5 32 -6 45 -14 48 -14 5z"/>
<path d="M2270 2261 c-17 -7 -27 -61 -11 -61 6 0 11 11 11 25 0 14 5 25 10 25
6 0 10 -11 10 -25 0 -14 5 -25 10 -25 14 0 12 46 -2 58 -7 5 -20 7 -28 3z"/>
<path d="M1902 2230 c0 -16 3 -30 8 -30 5 0 7 7 4 15 -4 8 -1 15 5 15 6 0 11
-7 11 -15 0 -8 5 -15 10 -15 6 0 10 11 10 24 0 14 -4 28 -10 31 -5 3 -10 1
-10 -4 0 -6 -5 -11 -11 -11 -5 0 -7 5 -4 10 3 6 2 10 -3 10 -5 0 -9 -13 -10
-30z"/>
<path d="M2030 2236 c0 -29 14 -41 38 -31 15 6 14 8 -5 16 -15 5 -21 14 -17
24 3 8 1 15 -5 15 -6 0 -11 -11 -11 -24z"/>
<path d="M2060 2250 c0 -5 5 -10 10 -10 6 0 10 5 10 10 0 6 -4 10 -10 10 -5 0
-10 -4 -10 -10z"/>
<path d="M2390 2256 c0 -5 8 -18 18 -29 16 -19 16 -20 0 -14 -10 4 -18 2 -18
-3 0 -14 27 -13 36 1 3 6 -3 21 -15 32 -11 12 -21 17 -21 13z"/>
<path d="M1746 2174 c-26 -14 -66 -27 -88 -29 -50 -5 -58 -12 -27 -24 13 -4
26 -5 29 -1 3 4 25 15 50 24 25 9 56 26 70 36 33 26 25 24 -34 -6z"/>
<path d="M2236 2173 c-16 -8 -43 -17 -60 -18 -17 -2 -38 -3 -46 -4 -12 -1 -11
-4 3 -12 13 -8 35 -4 87 16 39 15 70 29 70 31 0 9 -26 3 -54 -13z"/>
<path d="M1872 2033 c4 -60 20 -58 22 2 1 31 -3 45 -12 45 -9 0 -12 -14 -10
-47z"/>
<path d="M1910 2070 c0 -5 7 -7 15 -4 12 5 15 -3 15 -35 0 -23 5 -41 10 -41 6
0 10 18 10 41 0 32 3 40 15 35 8 -3 15 -1 15 4 0 6 -18 10 -40 10 -22 0 -40
-4 -40 -10z"/>
<path d="M2011 2066 c-19 -23 -10 -70 14 -73 11 -2 14 0 8 3 -18 8 -16 63 2
70 8 4 22 1 30 -6 12 -10 15 -9 15 4 0 21 -53 22 -69 2z"/>
<path d="M2090 2071 c0 -4 12 -6 27 -3 l26 5 -20 -29 c-32 -47 -35 -54 -21
-54 7 0 25 21 40 45 l27 45 -39 0 c-22 0 -40 -4 -40 -9z"/>
<path d="M1625 1945 c-30 -13 -30 -13 -5 -16 14 -1 33 -1 43 -1 10 1 46 -12
80 -29 42 -20 54 -24 37 -10 -14 11 -45 28 -70 37 -25 9 -47 21 -50 25 -3 4
-18 1 -35 -6z"/>
<path d="M2126 1941 c-7 -11 11 -16 46 -13 10 1 38 -7 64 -18 26 -11 49 -19
51 -17 5 6 -91 46 -126 53 -16 4 -31 1 -35 -5z"/>
<path d="M1126 1891 c-3 -4 6 -13 19 -19 14 -7 25 -8 25 -3 0 5 16 5 38 -1 84
-23 154 -73 224 -161 51 -65 49 -48 -3 20 -45 60 -139 126 -203 145 -23 6 -45
15 -50 20 -13 11 -43 10 -50 -1z"/>
<path d="M1476 1815 c3 -39 9 -86 14 -105 11 -42 2 58 -11 130 -6 35 -7 29 -3
-25z"/>
<path d="M1617 1854 c-13 -14 -7 -36 16 -54 26 -22 15 -40 -15 -21 -17 10 -19
10 -16 -1 7 -19 43 -22 57 -4 11 13 8 19 -13 39 -26 25 -25 47 2 24 13 -10 14
-9 10 3 -5 17 -30 25 -41 14z"/>
<path d="M1680 1810 l0 -50 34 0 c19 0 38 4 41 10 4 6 -6 7 -25 4 -23 -5 -30
-3 -30 10 0 9 8 16 20 16 11 0 20 4 20 9 0 5 -9 7 -20 4 -15 -4 -20 0 -20 16
0 23 35 30 43 9 3 -8 6 -6 6 5 1 13 -7 17 -34 17 l-35 0 0 -50z"/>
<path d="M1987 1854 c-3 -3 -3 -12 -1 -19 3 -7 -4 -15 -16 -18 -33 -9 -23 -51
13 -55 26 -3 27 -2 27 42 0 42 -10 63 -23 50z m1 -61 c-4 -22 -22 -20 -26 1
-2 10 3 16 13 16 10 0 15 -7 13 -17z"/>
<path d="M2210 1850 c0 -5 5 -10 11 -10 5 0 7 5 4 10 -3 6 -8 10 -11 10 -2 0
-4 -4 -4 -10z"/>
<path d="M2347 1854 c-3 -3 -3 -12 -1 -19 3 -7 -4 -15 -16 -18 -33 -9 -23 -51
13 -55 26 -3 27 -2 27 42 0 42 -10 63 -23 50z m3 -65 c0 -24 -23 -21 -28 4 -2
10 3 17 12 17 10 0 16 -9 16 -21z"/>
<path d="M1804 1827 c-8 -21 -1 -60 11 -64 6 -2 10 12 9 33 -2 40 -11 54 -20
31z"/>
<path d="M1845 1790 c0 -16 5 -30 12 -30 6 0 9 9 6 21 -4 12 0 25 8 30 11 7 9
9 -6 9 -16 0 -20 -7 -20 -30z"/>
<path d="M1892 1790 c-1 -25 3 -30 23 -30 20 0 23 5 22 28 -2 19 -9 28 -23 30
-17 2 -21 -3 -22 -28z m28 -10 c0 -5 -4 -10 -10 -10 -5 0 -10 5 -10 10 0 6 5
10 10 10 6 0 10 -4 10 -10z"/>
<path d="M2024 1805 c-13 -32 24 -63 41 -35 3 6 -3 10 -14 10 -12 0 -21 7 -21
16 0 11 6 14 20 9 11 -4 20 -2 20 4 0 17 -40 13 -46 -4z"/>
<path d="M2122 1789 c7 -19 14 -27 20 -21 6 6 5 17 -4 31 -19 31 -29 26 -16
-10z"/>
<path d="M2152 1795 c13 -29 23 -32 32 -9 9 24 6 42 -4 19 -7 -17 -9 -17 -9
-2 -1 9 -8 17 -16 17 -12 0 -13 -4 -3 -25z"/>
<path d="M2205 1790 c0 -16 5 -30 12 -30 7 0 10 11 9 27 -4 37 -21 40 -21 3z"/>
<path d="M2240 1790 c0 -16 5 -30 10 -30 6 0 10 11 10 25 0 14 5 25 11 25 7 0
9 -10 7 -25 -3 -15 -1 -25 7 -25 7 0 10 11 7 30 -3 24 -9 30 -28 30 -20 0 -24
-5 -24 -30z"/>
<path d="M2380 1809 c0 -7 8 -18 18 -26 16 -14 16 -14 0 -9 -10 3 -18 1 -18
-4 0 -14 27 -12 36 2 4 6 -1 17 -10 24 -16 12 -16 13 1 17 14 4 14 5 -4 6 -13
0 -23 -4 -23 -10z"/>
<path d="M1502 1650 c0 -14 4 -36 8 -50 6 -20 8 -21 8 -5 0 11 -4 34 -8 50 -7
27 -8 27 -8 5z"/>
<path d="M1608 1560 c-2 -35 1 -50 10 -50 6 0 12 9 12 20 0 14 7 20 21 20 16
0 19 -4 14 -20 -4 -13 -2 -20 7 -20 9 0 13 14 12 45 -1 25 -5 45 -10 45 -5 -1
-8 -10 -6 -20 2 -15 -3 -20 -17 -20 -16 0 -21 6 -21 25 0 46 -18 25 -22 -25z"/>
<path d="M1965 1555 c0 -25 5 -45 10 -45 6 0 9 19 7 45 -2 25 -7 45 -11 45 -3
0 -6 -20 -6 -45z"/>
<path d="M2290 1586 c0 -7 -9 -16 -21 -19 -32 -9 -22 -51 14 -55 26 -3 27 -2
27 42 0 25 -4 46 -10 46 -5 0 -10 -6 -10 -14z m0 -46 c0 -11 -4 -20 -10 -20
-5 0 -10 9 -10 20 0 11 5 20 10 20 6 0 10 -9 10 -20z"/>
<path d="M2067 1583 c-7 -12 4 -73 13 -73 4 0 7 16 5 36 -4 38 -10 51 -18 37z"/>
<path d="M2144 1577 c-8 -21 -1 -60 11 -64 6 -2 10 12 9 33 -2 40 -11 54 -20
31z"/>
<path d="M1704 1555 c-7 -17 12 -45 31 -45 19 0 36 25 29 44 -8 20 -53 21 -60
1z m46 -15 c0 -11 -7 -20 -15 -20 -8 0 -15 9 -15 20 0 11 7 20 15 20 8 0 15
-9 15 -20z"/>
<path d="M1775 1540 c0 -16 5 -30 11 -30 7 0 9 10 6 25 -5 31 11 32 41 4 17
-17 18 -21 5 -16 -10 4 -18 2 -18 -3 0 -6 9 -10 20 -10 24 0 27 28 3 37 -15 6
-15 7 3 14 13 5 5 8 -26 8 -43 1 -45 0 -45 -29z"/>
<path d="M1874 1555 c-13 -34 24 -63 42 -33 4 6 3 8 -2 5 -6 -3 -16 -2 -24 4
-13 7 -13 9 0 9 13 0 13 1 0 10 -13 8 -13 10 2 10 9 0 19 -6 21 -12 3 -8 6 -6
6 5 1 21 -37 23 -45 2z"/>
<path d="M2000 1560 c0 -7 6 -10 13 -7 8 3 14 -3 14 -14 1 -10 -3 -19 -8 -19
-6 0 -7 5 -4 10 3 6 1 10 -4 10 -6 0 -11 -7 -11 -15 0 -9 10 -15 26 -15 22 0
25 4 22 28 -2 19 -9 28 -25 30 -13 2 -23 -2 -23 -8z"/>
<path d="M2108 1540 c-3 -20 0 -30 9 -30 8 0 13 12 13 30 0 17 -4 30 -9 30 -5
0 -11 -13 -13 -30z"/>
<path d="M2184 1554 c3 -9 6 -22 6 -30 0 -8 10 -14 25 -14 21 0 25 5 25 30 0
17 -4 30 -10 30 -5 0 -10 -12 -10 -26 0 -14 -4 -23 -10 -19 -5 3 -10 15 -10
26 0 10 -5 19 -11 19 -6 0 -8 -7 -5 -16z"/>
<path d="M2324 1555 c-13 -33 24 -63 41 -35 4 6 3 10 -2 9 -20 -3 -30 2 -30
16 0 18 9 19 25 3 9 -9 12 -8 12 5 0 21 -38 23 -46 2z"/>
<path d="M2380 1563 c0 -3 8 -15 18 -26 16 -19 16 -20 0 -14 -10 4 -18 2 -18
-3 0 -6 9 -10 20 -10 21 0 27 24 9 36 -8 4 -7 9 2 15 10 6 8 9 -8 9 -13 0 -23
-3 -23 -7z"/>
<path d="M1361 1509 c-30 -5 -57 -12 -60 -15 -7 -6 74 4 129 16 49 11 0 10
-69 -1z"/>
<path d="M2086 1435 c4 -8 11 -15 16 -15 6 0 5 6 -2 15 -7 8 -14 15 -16 15 -2
0 -1 -7 2 -15z"/>
<path d="M1320 1433 c0 -13 79 -105 113 -133 17 -14 42 -35 55 -47 12 -13 32
-23 44 -23 20 0 20 1 3 20 -10 11 -22 17 -27 14 -13 -8 -84 52 -139 118 -27
33 -49 55 -49 51z"/>
<path d="M1746 1363 c21 -52 31 -59 39 -32 l7 22 13 -24 13 -24 10 25 c20 54
23 70 13 70 -6 0 -11 -12 -11 -27 -1 -27 -1 -27 -15 -9 -8 10 -12 23 -9 27 3
5 -1 9 -9 9 -10 0 -13 -7 -10 -19 3 -10 0 -22 -6 -25 -6 -4 -13 4 -17 19 -3
14 -12 25 -20 25 -10 0 -10 -7 2 -37z"/>
<path d="M2120 1355 c0 -25 5 -45 10 -45 6 0 10 20 10 45 0 25 -4 45 -10 45
-5 0 -10 -20 -10 -45z"/>
<path d="M1968 1375 c-2 -3 -3 -18 0 -34 4 -26 8 -29 43 -29 21 0 41 3 44 8 3
4 -4 6 -15 3 -11 -3 -20 0 -20 6 0 6 7 11 15 11 8 0 15 7 15 16 0 23 -33 13
-45 -14 -13 -30 -28 -28 -23 3 5 24 -3 40 -14 30z"/>
<path d="M1863 1363 c-7 -2 -13 -16 -13 -29 0 -20 5 -24 28 -23 l27 0 -25 11
-25 11 23 5 c13 2 21 9 19 15 -4 13 -18 17 -34 10z"/>
<path d="M1915 1359 c-8 -12 29 -51 39 -42 3 4 -2 15 -11 26 -10 11 -12 17 -5
13 6 -4 12 -2 12 3 0 14 -27 14 -35 0z"/>
<path d="M2070 1340 c0 -16 5 -30 10 -30 6 0 10 11 10 24 0 13 6 27 13 29 6 3
2 6 -10 6 -19 1 -23 -4 -23 -29z"/>
<path d="M2154 1340 c1 -39 16 -39 16 0 0 17 -4 30 -9 30 -4 0 -8 -13 -7 -30z"/>
<path d="M2190 1355 c-7 -8 -10 -22 -6 -30 6 -16 41 -21 50 -6 4 5 -3 7 -14 4
-11 -3 -20 0 -20 6 0 6 9 11 20 11 13 0 18 5 14 15 -8 19 -28 19 -44 0z"/>
<path d="M2254 1359 c-3 -6 3 -21 15 -32 14 -14 21 -17 21 -8 0 8 -8 20 -17
28 -17 14 -17 14 0 9 11 -3 16 -2 12 4 -8 13 -22 13 -31 -1z"/>
<path d="M1893 1262 c15 -10 25 -21 22 -24 -3 -3 8 -8 25 -10 28 -4 29 -4 13
14 -9 10 -24 18 -34 18 -10 0 -21 5 -24 10 -3 6 -12 10 -18 10 -7 0 0 -8 16
-18z"/>
<path d="M2657 2393 c-13 -13 -7 -32 13 -38 23 -7 63 12 54 26 -3 6 -11 3 -19
-7 -7 -10 -19 -15 -29 -11 -21 8 -21 24 2 30 14 4 14 5 1 6 -9 0 -19 -2 -22
-6z"/>
<path d="M2753 2383 c-18 -7 -16 -23 2 -23 8 0 15 7 15 15 0 8 -1 15 -2 14 -2
0 -9 -3 -15 -6z"/>
<path d="M708 1833 c-10 -2 -18 -9 -18 -14 0 -10 21 -13 58 -10 45 4 150 -58
222 -130 39 -38 70 -66 70 -61 0 5 -31 39 -69 74 -70 66 -175 128 -218 128
-14 0 -21 4 -18 10 6 10 2 11 -27 3z"/>
<path d="M1010 1366 c0 -22 161 -192 191 -201 18 -6 19 -5 7 14 -7 12 -20 21
-29 21 -16 0 -72 55 -137 135 -17 22 -32 36 -32 31z"/>
<path d="M3122 1884 c8 -8 24 -16 36 -19 12 -2 36 -13 52 -25 17 -12 30 -19
30 -16 0 3 -18 19 -40 35 -21 15 -37 31 -35 33 3 3 -9 5 -26 6 -28 1 -30 -1
-17 -14z"/>
<path d="M2950 1440 c14 -4 32 -8 40 -9 13 -1 13 0 0 9 -8 5 -26 9 -40 9 l-25
-1 25 -8z"/>
<path d="M1910 1078 c-148 -12 -138 -13 92 -13 119 0 215 1 214 2 -9 9 -228
17 -306 11z"/>
<path d="M2147 1029 c-4 -13 -1 -26 5 -30 6 -4 9 -32 6 -73 -2 -36 -1 -60 3
-53 12 21 13 141 2 161 -9 17 -11 16 -16 -5z"/>
<path d="M1873 1018 c8 -13 17 -22 21 -20 11 4 55 -53 75 -99 11 -24 20 -37
20 -29 1 20 -50 108 -82 143 -32 34 -56 37 -34 5z"/>
<path d="M2261 925 c-17 -30 -31 -58 -31 -62 0 -10 54 75 63 100 12 32 -1 17
-32 -38z"/>
<path d="M2317 865 c-24 -50 -20 -58 4 -12 11 22 19 41 17 43 -3 2 -12 -12
-21 -31z"/>
<path d="M1759 789 c3 -49 3 -50 34 -47 17 2 32 10 35 18 4 12 2 13 -9 3 -18
-18 -39 -16 -39 2 0 8 9 15 20 15 11 0 20 5 20 11 0 6 -9 8 -20 4 -16 -5 -20
-2 -20 15 0 17 5 21 20 17 11 -3 20 -1 20 4 0 5 -15 9 -32 9 l-33 0 4 -51z"/>
<path d="M2110 789 c0 -31 4 -48 10 -44 6 3 10 26 10 51 0 24 -4 44 -10 44 -5
0 -10 -23 -10 -51z"/>
<path d="M2145 830 c3 -5 8 -10 11 -10 2 0 4 5 4 10 0 6 -5 10 -11 10 -5 0 -7
-4 -4 -10z"/>
<path d="M1954 806 c-7 -19 3 -66 15 -66 9 0 7 67 -2 77 -4 3 -9 -2 -13 -11z"/>
<path d="M1849 808 c-8 -17 -5 -59 3 -64 7 -5 9 -1 5 9 -8 22 2 22 19 0 12
-17 13 -16 14 4 0 32 -10 53 -26 53 -8 0 -15 -1 -15 -2z m21 -18 c0 -5 -5 -10
-11 -10 -5 0 -7 5 -4 10 3 6 8 10 11 10 2 0 4 -4 4 -10z"/>
<path d="M1907 803 c-2 -5 -4 -21 -4 -38 0 -16 1 -22 4 -12 4 14 8 16 19 6 11
-9 14 -9 14 1 0 7 -8 19 -17 27 -17 14 -17 14 0 9 9 -3 17 -1 17 4 0 12 -27
13 -33 3z"/>
<path d="M2002 798 c-7 -7 -12 -17 -12 -24 0 -18 28 -37 41 -28 9 5 5 10 -12
17 l-24 10 23 5 c13 2 21 9 19 15 -5 16 -21 19 -35 5z"/>
<path d="M2059 772 c4 -30 6 -32 9 -12 2 14 8 30 12 35 6 7 2 11 -8 12 -15 1
-17 -5 -13 -35z"/>
<path d="M2140 781 c0 -17 5 -33 10 -36 6 -4 10 8 10 29 0 20 -4 36 -10 36 -5
0 -10 -13 -10 -29z"/>
<path d="M2182 798 c-7 -7 -12 -17 -12 -24 0 -18 28 -37 41 -28 9 5 5 10 -12
17 l-24 10 23 5 c13 2 21 9 19 15 -5 16 -21 19 -35 5z"/>
<path d="M2236 801 c-7 -11 32 -56 41 -48 3 4 -2 17 -13 29 -10 12 -13 18 -6
14 6 -4 12 -2 12 3 0 13 -27 15 -34 2z"/>
<path d="M2235 750 c3 -5 8 -10 11 -10 2 0 4 5 4 10 0 6 -5 10 -11 10 -5 0 -7
-4 -4 -10z"/>
<path d="M2100 715 c-8 -9 -8 -15 -2 -15 12 0 26 19 19 26 -2 2 -10 -2 -17
-11z"/>
<path d="M1804 3682 c8 -13 -63 -26 -151 -27 -35 0 -63 -3 -63 -7 0 -4 -19
-11 -42 -17 l-43 -11 48 5 c28 3 47 1 47 -5 0 -6 10 -4 23 4 27 18 179 39 187
26 3 -6 21 -5 43 2 45 14 117 -4 117 -28 0 -23 -20 -55 -30 -49 -5 3 -19 -9
-31 -27 -21 -29 -21 -31 -3 -24 10 5 27 11 37 13 10 3 16 11 14 17 -3 7 1 20
9 31 34 46 12 71 -72 84 -32 4 -68 12 -78 16 -13 6 -17 5 -12 -3z"/>
<path d="M2720 3649 c203 -62 407 -153 564 -251 100 -63 216 -150 211 -158 -3
-4 -25 -15 -50 -24 l-46 -18 -72 54 c-40 29 -85 62 -102 72 -16 10 -40 28 -53
40 -13 11 -33 22 -45 22 -12 1 -43 7 -68 14 -107 31 -158 -31 -110 -135 10
-22 21 -52 25 -67 6 -25 9 -27 26 -16 19 12 19 13 -10 43 -33 34 -50 73 -50
114 0 34 17 50 62 57 36 6 114 -18 111 -34 -1 -5 15 -12 36 -16 36 -5 164 -87
216 -137 19 -18 19 -19 -13 -30 -50 -17 -33 -20 22 -4 43 13 47 13 36 0 -15
-18 -16 -17 28 -32 l32 -11 -20 28 c-11 15 -20 31 -20 34 0 3 17 13 37 21 51
22 62 15 196 -125 121 -125 211 -248 288 -393 27 -51 49 -88 49 -83 0 16 -82
169 -123 231 -80 119 -132 182 -239 287 l-109 108 41 16 c55 22 46 27 -11 7
l-45 -16 -65 50 c-181 142 -473 288 -715 358 -48 14 -91 25 -98 24 -6 0 32
-14 84 -30z"/>
<path d="M1183 3514 c-9 -14 -18 -52 -20 -84 -4 -53 -2 -59 24 -80 26 -20 36
-22 126 -18 55 3 102 9 105 14 10 14 216 74 252 74 18 0 29 4 25 10 -4 6 7 10
26 10 18 0 29 3 25 7 -3 4 6 12 21 18 28 12 28 12 -9 11 -21 -1 -43 -7 -50
-14 -14 -14 -32 -16 -23 -2 11 17 -8 11 -31 -11 -23 -22 -164 -69 -224 -76
-62 -6 -74 -8 -114 -22 -40 -14 -110 -9 -133 11 -21 17 -14 116 7 103 4 -3 10
13 12 35 2 22 2 40 1 40 -1 0 -10 -12 -20 -26z"/>
<path d="M926 3395 c-31 -12 -41 -13 -47 -3 -6 9 -10 8 -15 -5 -3 -10 -41 -41
-83 -69 -42 -28 -98 -68 -125 -89 -27 -22 -54 -39 -60 -39 -7 0 -23 -14 -36
-32 -20 -28 -21 -30 -4 -24 10 5 26 10 36 13 9 3 18 13 21 22 4 18 130 117
200 157 23 13 52 24 65 24 12 0 21 5 20 12 -4 16 94 42 126 34 14 -3 32 -16
40 -29 21 -31 3 -99 -39 -142 -17 -19 -28 -36 -22 -38 24 -8 -188 -247 -244
-275 -22 -11 -35 -22 -28 -24 36 -12 -179 -138 -235 -138 -22 0 -35 -4 -31
-10 16 -27 -130 -45 -173 -22 -15 9 -22 22 -22 43 0 41 56 146 92 172 15 11
28 28 28 37 0 9 9 25 21 36 11 10 25 28 30 39 6 11 -7 1 -28 -22 -21 -24 -44
-43 -51 -43 -6 0 -12 -5 -12 -12 0 -6 -18 -42 -41 -79 -48 -80 -60 -140 -34
-168 24 -27 81 -34 145 -17 34 9 57 11 61 5 3 -6 12 -3 19 6 8 9 43 32 79 50
36 18 88 49 115 69 27 19 53 33 57 30 5 -2 13 6 20 18 6 13 46 59 88 103 42
44 94 104 116 133 21 28 45 52 52 52 7 0 13 9 13 20 0 12 9 39 21 61 25 51 29
113 7 135 -22 22 -95 27 -142 9z"/>
<path d="M1167 3281 c-30 -38 -42 -47 -60 -44 -42 8 -76 -49 -44 -75 16 -14
49 -18 65 -9 6 5 12 24 12 44 0 26 10 48 36 80 20 24 34 46 32 48 -2 3 -21
-17 -41 -44z m-57 -58 c0 -10 -32 -43 -42 -43 -4 0 -8 7 -8 16 0 10 6 14 14
11 10 -4 13 -1 9 9 -3 8 1 14 11 14 9 0 16 -3 16 -7z m20 -35 c0 -16 -3 -19
-11 -11 -6 6 -8 16 -5 22 11 17 16 13 16 -11z m-20 -18 c0 -5 -7 -10 -16 -10
-8 0 -12 5 -9 10 3 6 10 10 16 10 5 0 9 -4 9 -10z"/>
<path d="M3658 3285 c-2 -31 1 -45 9 -45 7 0 13 8 13 19 0 28 38 35 42 7 2
-15 10 -21 28 -21 20 0 25 5 25 25 0 20 -5 25 -25 25 -14 0 -28 7 -32 18 -10
24 -27 22 -21 -3 3 -11 0 -20 -6 -20 -6 0 -11 9 -11 20 0 40 -18 19 -22 -25z
m105 -10 c8 -19 -13 -31 -24 -14 -13 20 -11 29 5 29 8 0 16 -7 19 -15z"/>
<path d="M3790 3286 l0 -43 43 -1 c43 -1 43 -1 39 28 -3 21 -10 30 -23 30 -11
0 -19 -4 -19 -10 0 -5 6 -7 13 -4 7 2 13 -4 14 -16 1 -11 -2 -20 -8 -20 -5 0
-9 5 -9 11 0 8 -5 8 -15 -1 -13 -11 -15 -7 -15 29 0 22 -4 41 -10 41 -5 0 -10
-20 -10 -44z"/>
<path d="M3976 3314 c-11 -28 -7 -74 7 -74 8 0 12 16 12 45 0 46 -8 58 -19 29z"/>
<path d="M3890 3270 c0 -16 5 -30 10 -30 6 0 10 11 10 24 0 13 6 27 13 29 6 3
2 6 -10 6 -19 1 -23 -4 -23 -29z"/>
<path d="M3000 3173 c0 -13 68 -97 150 -185 47 -49 90 -99 96 -109 5 -11 13
-17 17 -13 3 3 24 -8 46 -25 22 -18 75 -50 118 -72 43 -23 86 -48 96 -57 9 -8
17 -10 17 -4 0 6 19 5 57 -5 65 -17 115 -11 144 18 33 33 29 45 -54 201 -19
36 -38 64 -40 61 -3 -2 -24 15 -47 39 l-42 43 36 -46 c20 -25 33 -49 30 -52
-3 -3 10 -20 29 -37 36 -31 97 -138 97 -170 0 -23 -29 -46 -65 -54 -38 -8
-131 16 -127 32 1 8 -11 12 -34 12 -61 0 -249 108 -239 137 2 7 -6 15 -18 19
-22 7 -167 141 -167 155 0 4 47 26 105 49 58 23 104 44 102 46 -2 2 -48 -14
-102 -36 -54 -22 -104 -40 -111 -40 -6 0 -29 23 -50 50 -38 50 -44 56 -44 43z"/>
<path d="M552 2653 c32 -5 43 -30 33 -81 -5 -27 -9 -32 -17 -21 -7 10 -8 6 -5
-15 5 -32 -1 -58 -12 -52 -4 3 -7 -10 -7 -28 0 -38 -43 -158 -54 -151 -5 3
-10 -7 -12 -22 -2 -16 -8 -27 -15 -26 -8 2 -13 -9 -13 -29 0 -42 -45 -118 -70
-118 -11 0 -20 -4 -20 -9 0 -25 46 8 80 60 22 32 44 60 50 64 5 3 7 12 4 19
-3 7 2 19 10 26 9 7 13 16 10 21 -7 13 43 144 62 159 17 15 19 34 2 24 -7 -4
-2 9 10 29 12 20 17 37 12 37 -6 0 -7 19 -3 45 7 53 -7 76 -46 74 l-26 -2 27
-4z"/>
<path d="M3427 2653 c-12 -19 -10 -130 1 -151 7 -12 10 -27 6 -33 -3 -6 1 -18
9 -27 22 -24 59 -126 52 -144 -3 -8 3 -22 14 -32 11 -10 18 -23 14 -28 -3 -6
-1 -13 4 -17 6 -3 26 -31 46 -62 25 -39 44 -58 62 -61 32 -7 32 0 0 12 -31 12
-63 63 -71 112 -4 21 -10 35 -15 32 -5 -3 -9 9 -9 25 0 21 -5 31 -15 31 -8 0
-15 1 -15 3 0 1 -9 27 -20 57 -11 30 -20 70 -20 88 0 20 -4 31 -10 27 -6 -4
-10 8 -10 30 0 23 -4 34 -11 30 -7 -5 -9 11 -7 47 3 46 6 53 26 56 33 5 148
-63 176 -104 15 -22 26 -30 28 -22 3 8 22 -2 56 -31 29 -23 52 -39 52 -34 0 5
-23 26 -50 47 -28 21 -48 41 -45 44 3 3 -14 15 -37 27 -24 12 -68 36 -98 53
-52 30 -103 41 -113 25z"/>
<path d="M454 2619 c-27 -18 -67 -40 -89 -50 -22 -10 -34 -19 -27 -19 8 0 -11
-20 -42 -46 -72 -58 -73 -67 -1 -13 31 23 58 39 62 36 3 -4 15 5 26 20 11 14
48 43 80 64 33 22 56 39 51 39 -6 0 -32 -14 -60 -31z"/>
<path d="M191 2594 c-11 -8 -21 -26 -21 -39 0 -22 -39 -51 -143 -104 -15 -7
-25 -16 -23 -19 3 -3 43 17 88 44 72 43 87 48 110 40 36 -13 60 7 56 47 -4 37
-36 52 -67 31z m59 -35 c0 -12 -4 -17 -11 -14 -6 4 -8 13 -5 20 8 21 -28 12
-38 -10 -8 -19 -9 -19 -13 -2 -6 25 26 48 49 36 10 -5 18 -19 18 -30z m-20
-30 c0 -5 -7 -9 -15 -9 -15 0 -20 12 -9 23 8 8 24 -1 24 -14z"/>
<path d="M3770 2592 c-18 -14 -21 -25 -16 -45 7 -30 48 -46 70 -28 11 9 31 -1
95 -44 44 -31 81 -54 81 -51 0 2 -36 30 -80 61 -62 44 -80 62 -80 80 0 14 -8
29 -19 35 -25 13 -25 13 -51 -8z m37 -18 c-9 -9 -28 6 -21 18 4 6 10 6 17 -1
6 -6 8 -13 4 -17z m-23 -25 c-10 -16 -24 -9 -24 12 0 18 2 19 15 9 8 -7 12
-16 9 -21z m36 -14 c-15 -18 -43 -20 -37 -2 2 6 11 11 20 11 9 -1 14 2 11 7
-3 5 -2 15 3 22 5 9 9 7 11 -6 2 -10 -2 -24 -8 -32z"/>
<path d="M120 2376 c-21 -8 -29 -15 -21 -17 9 -3 -5 -21 -42 -49 -36 -29 -57
-52 -57 -65 1 -18 2 -18 14 3 16 29 95 94 106 87 5 -3 18 8 30 25 24 33 21 34
-30 16z"/>
<path d="M3850 2382 c1 -14 39 -52 48 -50 6 2 31 -14 56 -35 25 -21 46 -34 46
-29 0 4 -20 24 -45 42 -25 19 -44 39 -41 46 2 6 -11 16 -30 22 -19 5 -34 7
-34 4z"/>
<path d="M40 2121 c0 -3 14 -14 30 -23 17 -9 30 -13 30 -8 0 5 45 7 103 5 110
-4 99 0 -26 10 -42 4 -75 11 -72 16 3 4 -10 8 -30 7 -19 -1 -35 -4 -35 -7z"/>
<path d="M3904 2121 c4 -5 -29 -12 -71 -16 -125 -10 -136 -14 -25 -9 68 3 102
1 102 -7 0 -5 13 -2 30 8 40 23 38 33 -6 33 -19 0 -33 -4 -30 -9z"/>
<path d="M61 1941 l-35 -18 40 -5 c22 -3 42 0 46 6 4 6 31 14 60 17 l53 8 -62
-3 c-34 -1 -60 1 -57 6 8 13 -8 9 -45 -11z"/>
<path d="M235 1950 c4 -7 65 -1 65 6 0 3 -15 4 -34 2 -19 -1 -33 -5 -31 -8z"/>
<path d="M3780 1948 c36 -5 80 -11 98 -14 21 -3 30 -9 26 -16 -5 -8 -1 -9 10
-5 10 4 32 7 49 7 l31 0 -39 20 c-23 12 -41 16 -43 10 -2 -5 -13 -8 -25 -6
-12 3 -56 7 -97 9 l-75 5 65 -10z"/>
<path d="M377 1935 c35 -15 73 -77 73 -120 0 -14 4 -24 9 -21 10 7 21 -17 21
-45 0 -10 5 -18 11 -16 14 3 47 -81 51 -130 2 -21 8 -43 14 -50 6 -6 9 -24 6
-39 -3 -18 -1 -25 6 -20 7 4 13 -7 18 -29 7 -40 1 -63 -20 -71 -21 -8 -124 45
-165 85 -20 19 -40 34 -44 33 -5 -2 -31 16 -58 39 -27 23 -52 39 -55 37 -2 -3
18 -23 46 -44 28 -21 48 -44 46 -51 -3 -8 2 -13 12 -13 9 0 50 -20 91 -45 125
-75 169 -69 157 23 -4 26 -2 42 5 42 6 0 1 16 -11 35 -12 19 -18 35 -13 35 5
0 -6 32 -25 71 -19 39 -35 84 -36 99 -1 16 -10 38 -21 51 -12 13 -14 19 -5 14
8 -5 3 6 -12 24 -16 18 -28 37 -28 41 0 20 -63 80 -84 80 -17 -1 -15 -4 11
-15z"/>
<path d="M3618 1939 c-10 -5 -29 -29 -43 -53 -14 -24 -34 -51 -45 -61 -11 -10
-17 -22 -14 -27 3 -5 -2 -18 -12 -29 -9 -10 -12 -19 -6 -19 13 0 -41 -136 -64
-161 -11 -12 -12 -18 -3 -21 9 -3 9 -10 -2 -28 -17 -31 -13 -130 7 -150 18
-18 64 -3 150 51 34 22 69 39 78 39 9 0 16 6 16 13 0 6 21 32 47 55 44 40 27
32 -39 -19 -18 -13 -28 -16 -28 -8 0 7 -16 -6 -35 -28 -39 -46 -153 -110 -178
-100 -13 5 -17 19 -17 57 0 32 4 49 10 45 6 -4 10 8 10 29 0 20 5 36 10 36 6
0 10 14 10 32 0 42 41 148 57 148 8 0 13 13 13 31 0 16 4 28 9 25 5 -3 12 10
16 30 9 48 44 102 75 113 14 5 18 10 10 10 -8 0 -23 -4 -32 -10z"/>
<path d="M0 1799 c0 -9 19 -32 43 -51 62 -51 79 -57 25 -8 -26 23 -52 49 -58
58 -8 15 -9 15 -10 1z"/>
<path d="M3960 1753 c-19 -18 -45 -36 -56 -39 -12 -3 -32 -19 -44 -36 -21 -28
-21 -30 -4 -24 10 5 27 11 37 13 9 3 17 10 17 17 0 6 21 30 47 53 27 22 46 43
43 45 -3 2 -21 -11 -40 -29z"/>
<path d="M111 1698 c-7 -11 -11 -21 -9 -22 9 -4 68 -24 68 -22 0 1 -10 16 -23
33 -22 31 -23 31 -36 11z"/>
<path d="M3921 1570 c-64 -44 -78 -50 -107 -44 -40 7 -64 -8 -64 -40 0 -28 18
-46 45 -46 27 0 45 18 45 45 0 14 24 36 80 74 71 48 88 61 77 61 -2 0 -36 -23
-76 -50z m-109 -62 c-9 -9 -15 -9 -24 0 -9 9 -7 12 12 12 19 0 21 -3 12 -12z
m-15 -30 c17 -16 22 -18 18 -6 -4 9 -1 19 5 23 8 5 11 -1 8 -16 -2 -16 -11
-25 -27 -27 -18 -3 -22 0 -18 12 4 10 1 13 -9 9 -8 -3 -14 1 -14 11 0 22 9 20
37 -6z"/>
<path d="M1 1606 c2 -2 15 -9 29 -15 24 -11 24 -11 6 3 -16 13 -49 24 -35 12z"/>
<path d="M60 1577 c0 -3 25 -19 55 -36 42 -24 55 -37 55 -54 0 -29 18 -47 45
-47 27 0 45 18 45 46 0 31 -25 48 -60 40 -23 -4 -44 2 -85 25 -30 17 -55 29
-55 26z m188 -84 c2 -13 -2 -23 -8 -23 -8 0 -10 8 -7 21 4 16 3 18 -7 9 -10
-7 -17 -6 -27 6 -11 14 -9 15 17 12 21 -2 30 -9 32 -25z m-28 -18 c23 -25 23
-25 2 -25 -15 0 -20 5 -16 15 5 11 2 13 -10 9 -11 -4 -16 -1 -16 10 0 23 13
20 40 -9z"/>
<path d="M10 1435 c0 -21 108 -209 170 -297 36 -51 117 -145 182 -211 l116
-119 -45 -19 c-24 -10 -49 -19 -53 -19 -5 0 -12 -5 -15 -10 -4 -6 18 -1 47 11
80 32 81 32 123 -2 86 -69 275 -185 400 -245 125 -60 363 -146 435 -158 44 -7
27 -1 -120 45 -136 42 -271 97 -376 153 -148 79 -369 230 -359 245 3 5 -5 11
-18 15 -22 5 -185 164 -253 246 -57 70 -127 178 -183 281 -28 52 -51 90 -51
84z"/>
<path d="M288 1335 c-47 -27 -33 -101 41 -210 12 -16 21 -38 21 -47 0 -21 9
-22 32 -5 15 12 14 15 -12 32 -37 25 -90 114 -97 163 -4 33 -2 42 18 56 13 9
38 16 57 16 44 0 123 -20 117 -30 -3 -4 14 -10 37 -14 44 -7 150 -62 199 -104
16 -13 32 -22 35 -20 7 8 -56 53 -132 94 -38 20 -80 44 -94 52 -13 8 -36 16
-50 18 -14 1 -52 5 -85 8 -45 5 -67 3 -87 -9z"/>
<path d="M3516 1331 c-10 -10 -45 -33 -79 -49 -34 -17 -86 -48 -116 -71 -40
-30 -57 -38 -63 -29 -5 10 -8 8 -8 -4 0 -9 -43 -63 -96 -120 -53 -57 -111
-125 -129 -151 -18 -27 -35 -43 -37 -36 -2 7 -12 -9 -22 -37 -27 -76 -29 -92
-8 -54 11 19 29 43 41 54 11 10 18 23 15 28 -12 19 184 242 238 269 21 11 36
24 33 29 -13 20 191 140 238 140 10 0 25 6 33 14 8 8 34 18 59 22 92 13 143
-16 130 -76 -9 -39 -79 -146 -105 -160 -11 -6 -18 -15 -15 -19 2 -5 -9 -26
-25 -46 -43 -54 -36 -58 9 -6 27 32 40 40 44 30 4 -9 6 -8 6 6 1 11 21 53 46
94 25 41 48 90 51 110 13 67 -64 99 -170 70 -28 -8 -41 -8 -46 0 -4 8 -12 5
-24 -8z"/>
<path d="M742 1170 c-16 -26 -15 -30 4 -30 16 0 174 -146 174 -161 0 -4 -6 -9
-12 -12 -7 -2 -5 -3 5 -1 12 1 31 -15 54 -47 20 -26 39 -46 41 -44 6 6 -96
132 -172 213 -34 35 -64 73 -68 83 -9 24 -10 24 -26 -1z"/>
<path d="M380 1065 c0 -4 16 -25 35 -46 19 -22 35 -36 35 -32 -1 11 -70 88
-70 78z"/>
<path d="M1010 1009 c-13 -9 -13 -10 0 -7 18 5 99 -94 82 -100 -23 -7 -42 -33
-41 -55 2 -22 2 -22 6 1 4 23 17 29 27 13 3 -5 -1 -15 -10 -22 -14 -12 -14
-14 1 -25 9 -7 24 -10 32 -7 9 4 30 -12 58 -43 l43 -49 -25 -23 c-22 -20 -25
-30 -21 -72 3 -27 2 -51 -3 -52 -4 -2 7 -19 23 -38 17 -19 28 -27 24 -17 -3
10 -6 30 -6 43 0 14 -4 23 -9 19 -13 -7 -25 58 -17 89 8 31 34 41 57 20 10 -9
58 -63 106 -120 48 -56 89 -101 91 -99 4 4 -5 15 -122 148 l-77 87 38 0 c21 0
51 -7 66 -15 15 -8 34 -12 41 -9 8 3 17 0 21 -6 6 -9 9 -9 14 -1 9 14 201 -41
240 -68 14 -10 32 -16 39 -14 7 3 22 -3 33 -13 10 -9 19 -12 19 -6 0 8 7 9 25
2 16 -6 25 -6 25 0 0 6 -9 10 -21 10 -14 0 -19 5 -16 14 4 10 -8 16 -50 21
-70 9 -274 70 -283 86 -5 6 -17 8 -29 4 -11 -3 -21 -3 -21 2 0 5 -33 7 -73 5
l-73 -4 -44 53 c-34 39 -44 59 -41 81 2 22 -11 46 -54 103 -31 41 -57 75 -58
75 -1 0 -9 -5 -17 -11z m98 -130 c-2 -6 -8 -10 -13 -10 -5 0 -11 4 -13 10 -2
6 4 11 13 11 9 0 15 -5 13 -11z m7 -56 c-19 -13 -39 -8 -29 8 3 6 13 8 21 5 8
-3 11 -1 8 4 -3 6 -3 16 2 23 5 8 9 6 11 -7 2 -11 -4 -25 -13 -33z"/>
<path d="M960 990 c-8 -5 -10 -10 -5 -10 6 0 17 5 25 10 8 5 11 10 5 10 -5 0
-17 -5 -25 -10z"/>
<path d="M742 909 c-68 -27 -128 -46 -134 -43 -7 4 -7 9 0 13 6 3 -8 14 -29
23 l-40 17 21 -34 21 -34 -28 -15 c-34 -18 -21 -19 27 -2 33 13 37 12 75 -19
22 -17 74 -54 115 -82 42 -28 82 -58 89 -67 13 -15 15 -15 26 1 16 22 10 33
-18 33 -28 0 -105 45 -181 106 l-60 47 124 49 c115 45 146 59 124 57 -5 0 -65
-23 -132 -50z"/>
<path d="M3427 898 c-15 -5 -25 -13 -22 -18 11 -18 -182 -158 -247 -179 -21
-7 -38 -16 -38 -21 0 -23 -128 -40 -159 -21 -8 5 -17 26 -21 47 l-8 39 -1 -37
c-2 -54 30 -73 107 -64 31 4 69 8 85 8 15 1 27 5 27 9 0 5 39 35 88 68 48 32
107 75 132 94 24 20 47 34 50 32 4 -2 17 9 29 25 23 32 21 34 -22 18z"/>
<path d="M1012 867 l-23 -10 31 -32 c18 -18 38 -50 45 -71 8 -22 14 -32 15
-23 0 9 -7 34 -16 55 -10 22 -20 51 -23 65 -5 23 -9 25 -29 16z"/>
<path d="M75 799 c-12 -19 -11 -79 1 -79 7 0 9 10 6 25 -3 18 0 25 12 25 10 0
16 -9 16 -25 0 -14 5 -25 10 -25 5 0 9 3 9 8 -1 4 -1 15 0 25 2 25 19 21 23
-5 2 -17 10 -23 28 -23 20 0 25 5 25 25 0 24 -3 25 -59 28 -65 2 -78 8 -56 22
9 6 10 10 3 10 -6 0 -15 -5 -18 -11z m123 -52 c2 -10 -3 -17 -11 -17 -16 0
-30 24 -19 34 10 10 27 1 30 -17z"/>
<path d="M294 776 c-7 -27 0 -56 13 -56 9 0 8 68 -1 77 -3 3 -8 -6 -12 -21z"/>
<path d="M225 750 c0 -16 3 -30 8 -30 4 0 7 11 7 25 0 14 5 25 10 25 6 0 10
-11 10 -25 0 -14 5 -25 11 -25 6 0 9 12 7 28 -2 20 -9 28 -28 30 -22 2 -25 -1
-25 -28z"/>
<path d="M1056 667 c-15 -16 -28 -18 -70 -14 -28 3 -62 8 -76 11 -21 5 -20 4
5 -8 56 -28 177 -12 164 21 -2 5 -12 0 -23 -10z"/>
<path d="M2085 510 c-22 -10 -34 -19 -27 -19 9 -1 7 -9 -7 -27 -12 -15 -21
-33 -21 -40 0 -19 41 -44 70 -43 21 1 20 2 -9 9 -18 4 -37 14 -41 21 -10 15
10 61 24 56 6 -2 21 11 33 29 12 19 21 34 20 33 -1 0 -20 -9 -42 -19z"/>
<path d="M1310 185 c0 -25 4 -45 9 -45 4 0 6 12 4 28 -4 26 -4 26 11 8 9 -11
16 -24 16 -30 0 -6 4 -6 11 1 11 11 -25 83 -42 83 -5 0 -9 -20 -9 -45z"/>
<path d="M1380 211 c-13 -26 -13 -40 1 -21 8 12 9 7 6 -17 -2 -23 1 -33 10
-33 9 0 13 14 13 45 0 47 -12 58 -30 26z"/>
<path d="M2198 213 c-5 -24 3 -73 11 -73 3 0 6 17 5 37 -1 21 3 41 9 45 8 5 6
8 -5 8 -9 0 -18 -8 -20 -17z"/>
<path d="M2411 188 c-1 -27 3 -48 7 -48 4 0 6 17 4 38 -5 58 -10 62 -11 10z"/>
<path d="M1878 204 c-7 -7 4 -64 12 -64 5 0 6 9 3 21 -3 12 0 24 6 29 10 5 9
9 -2 13 -8 3 -17 4 -19 1z"/>
<path d="M2688 205 c-6 -7 3 -65 11 -65 7 0 7 58 -1 65 -2 3 -7 3 -10 0z"/>
<path d="M1430 185 c-7 -8 -10 -21 -7 -29 8 -20 84 -18 84 1 0 9 -6 11 -16 7
-35 -14 -51 -16 -51 -5 0 6 7 11 15 11 8 0 15 7 15 15 0 19 -24 19 -40 0z"/>
<path d="M1495 190 c-3 -6 1 -7 9 -4 12 5 16 0 16 -20 0 -14 4 -26 8 -26 5 0
7 13 4 30 -4 29 -25 40 -37 20z"/>
<path d="M1555 170 c0 -16 3 -30 8 -30 4 0 7 11 7 25 0 14 5 25 10 25 6 0 10
-11 10 -25 0 -14 5 -25 10 -25 6 0 10 6 10 14 0 29 -13 46 -34 46 -17 0 -21
-6 -21 -30z"/>
<path d="M1654 155 c0 -29 5 -45 13 -45 7 0 10 6 7 14 -3 8 3 16 16 19 32 8
24 51 -10 55 -24 3 -26 0 -26 -43z m44 12 c2 -10 -3 -17 -12 -17 -10 0 -16 9
-16 21 0 24 23 21 28 -4z"/>
<path d="M1724 186 c-10 -26 4 -48 28 -44 17 2 23 10 23 28 0 18 -6 26 -23 28
-13 2 -25 -3 -28 -12z m39 -11 c8 -18 -11 -31 -25 -17 -11 11 -3 32 12 32 4 0
10 -7 13 -15z"/>
<path d="M1790 185 c0 -9 8 -19 17 -22 15 -6 15 -7 -3 -14 -17 -7 -17 -8 4 -8
26 -1 29 16 5 36 -17 14 -17 14 0 9 9 -3 17 -1 17 4 0 6 -9 10 -20 10 -11 0
-20 -7 -20 -15z"/>
<path d="M1840 170 c0 -16 5 -30 10 -30 6 0 10 14 10 30 0 17 -4 30 -10 30 -5
0 -10 -13 -10 -30z"/>
<path d="M1920 170 c0 -16 4 -30 8 -30 4 0 9 14 10 30 1 17 -2 30 -8 30 -5 0
-10 -13 -10 -30z"/>
<path d="M1962 191 c-23 -14 -10 -46 18 -46 20 0 25 5 25 25 0 26 -20 36 -43
21z m31 -16 c8 -19 -13 -31 -23 -14 -9 14 -4 29 10 29 4 0 10 -7 13 -15z"/>
<path d="M2025 169 c0 -16 3 -29 8 -29 4 0 7 9 7 19 0 11 5 23 10 26 6 4 10
-5 10 -19 0 -14 5 -26 11 -26 6 0 9 12 7 27 -2 21 -9 28 -28 30 -21 1 -25 -3
-25 -28z"/>
<path d="M2132 191 c-16 -10 -13 -42 4 -48 7 -2 10 6 6 23 -4 20 -1 25 9 22 8
-3 14 -15 13 -27 0 -13 3 -18 9 -12 25 25 -11 62 -41 42z"/>
<path d="M2268 155 c-2 -31 1 -45 9 -45 7 0 10 7 7 15 -4 10 0 15 14 15 11 0
23 6 26 13 5 10 7 10 12 0 8 -19 51 -16 58 4 4 9 0 23 -9 32 -13 13 -19 14
-36 2 -15 -9 -24 -10 -32 -2 -26 26 -45 12 -49 -34z m42 9 c0 -8 -7 -14 -15
-14 -15 0 -21 21 -9 33 10 9 24 -2 24 -19z m70 6 c0 -11 -7 -20 -15 -20 -8 0
-15 9 -15 20 0 11 7 20 15 20 8 0 15 -9 15 -20z"/>
<path d="M2444 189 c-5 -9 -2 -10 9 -6 12 5 17 1 17 -13 0 -11 -5 -20 -11 -20
-5 0 -7 5 -4 10 3 6 1 10 -4 10 -6 0 -11 -7 -11 -15 0 -9 10 -15 26 -15 22 0
25 4 22 27 -3 30 -31 43 -44 22z"/>
<path d="M2508 170 c2 -16 8 -30 12 -30 5 0 6 9 3 21 -4 12 0 25 8 30 11 7 9
9 -7 9 -17 0 -20 -5 -16 -30z"/>
<path d="M2588 164 c3 -24 0 -40 -9 -46 -12 -8 -11 -9 1 -5 16 4 28 87 13 87
-5 0 -7 -16 -5 -36z"/>
<path d="M2622 183 c-5 -10 -7 -24 -5 -30 5 -15 39 -17 47 -4 4 5 -3 7 -14 4
-11 -3 -20 0 -20 6 0 6 9 11 21 11 12 0 19 5 17 13 -7 19 -36 20 -46 0z"/>
</g>
</svg>
